<?xml version="1.0" standalone="no"?>
<!DOCTYPE svg PUBLIC "-//W3C//DTD SVG 20010904//EN"
 "http://www.w3.org/TR/2001/REC-SVG-20010904/DTD/svg10.dtd">
<svg version="1.0" xmlns="http://www.w3.org/2000/svg"
 width="950.000000pt" height="960.000000pt" viewBox="0 0 950.000000 960.000000"
 preserveAspectRatio="xMidYMid meet">

<g transform="translate(0.000000,960.000000) scale(0.100000,-0.100000)"
fill="#000000" stroke="none">
<path d="M4370 9489 c-911 -68 -1804 -421 -2532 -1003 -699 -559 -1222 -1307
-1503 -2151 -371 -1113 -310 -2326 170 -3379 450 -986 1197 -1762 2161 -2244
955 -478 2043 -608 3100 -372 1174 262 2216 993 2876 2015 310 481 534 1035
647 1600 145 720 113 1489 -90 2188 -357 1233 -1203 2263 -2334 2843 -559 286
-1105 444 -1735 499 -178 16 -569 18 -760 4z m700 -739 c781 -70 1501 -358
2110 -845 225 -181 507 -472 686 -710 520 -690 794 -1555 771 -2430 -18 -684
-196 -1303 -545 -1895 -501 -849 -1335 -1488 -2295 -1760 -718 -204 -1468
-195 -2212 25 -225 66 -594 228 -810 355 -660 389 -1194 958 -1529 1629 -402
805 -513 1706 -320 2591 69 312 164 581 314 885 463 935 1292 1653 2285 1977
272 88 587 153 865 177 140 12 547 12 680 1z m1850 -130 c12 -8 10 -14 -15
-40 -25 -26 -27 -32 -15 -40 22 -14 26 -13 54 20 22 27 28 29 45 18 19 -12 19
-12 -5 -41 -17 -20 -22 -33 -15 -40 18 -18 -6 -48 -33 -41 -14 3 -27 -1 -36
-11 -11 -13 -10 -18 4 -34 9 -10 14 -25 10 -35 -7 -19 -6 -19 -39 -4 -22 10
-29 8 -54 -16 -18 -17 -34 -24 -44 -20 -21 8 -21 10 4 45 34 49 -3 71 -40 23
-15 -19 -26 -24 -41 -19 -25 8 -25 17 1 41 13 11 18 26 15 39 -7 29 8 48 31
41 13 -4 26 1 37 13 16 18 16 20 -3 33 -18 13 -19 17 -8 33 12 15 17 16 37 5
20 -11 26 -9 49 14 28 28 38 31 61 16z m336 -219 c100 -45 121 -154 47 -242
-52 -61 -114 -74 -184 -39 -99 51 -106 184 -13 258 56 45 91 50 150 23z
m-5032 -155 c47 -60 86 -112 86 -116 0 -4 -9 -15 -19 -24 -18 -17 -21 -14 -82
63 -34 45 -64 79 -66 77 -2 -2 16 -46 41 -99 l44 -96 -24 -16 c-28 -18 -27
-19 -114 50 -91 71 -100 75 -59 24 111 -139 105 -128 83 -144 -10 -8 -22 -15
-25 -15 -12 0 -191 232 -183 239 5 3 21 17 36 30 l28 24 79 -61 c44 -34 82
-62 85 -62 2 0 -14 42 -36 92 l-40 93 33 28 c19 15 36 26 40 25 4 -2 45 -52
93 -112z m5260 -15 c16 -18 17 -26 2 -127 -9 -59 -15 -108 -13 -110 1 -2 29
30 62 70 58 73 59 74 82 58 12 -10 21 -19 20 -22 -5 -13 -183 -229 -188 -229
-4 -1 -17 7 -29 17 -22 18 -22 18 -7 127 9 60 15 111 14 112 -2 1 -27 -29 -57
-67 -55 -70 -74 -79 -93 -49 -8 13 8 39 79 127 49 61 94 111 100 111 6 1 19
-8 28 -18z m-5595 -212 c64 -29 129 -58 145 -66 l29 -15 -22 -21 c-19 -19 -24
-20 -56 -8 -33 12 -36 11 -80 -26 -25 -20 -45 -39 -45 -41 0 -1 7 -17 16 -34
15 -30 15 -32 -9 -56 l-25 -25 -19 44 c-11 24 -39 92 -63 151 -43 105 -43 108
-25 128 10 11 22 20 28 20 5 0 61 -23 126 -51z m5901 -54 c70 -70 73 -76 58
-92 -16 -16 -21 -13 -78 37 l-62 53 -21 -22 -21 -21 54 -55 c51 -51 53 -56 38
-72 -16 -15 -20 -13 -67 30 -28 26 -54 47 -59 47 -5 0 -19 -12 -33 -26 l-24
-26 59 -55 c48 -45 57 -58 49 -72 -6 -9 -15 -16 -21 -16 -10 0 -162 142 -162
152 0 10 195 211 205 212 6 1 44 -33 85 -74z m-6160 -71 c11 -13 5 -24 -44
-73 l-56 -57 26 -25 26 -24 46 53 c50 56 62 61 82 36 11 -13 5 -23 -40 -69
l-54 -55 24 -25 c13 -14 27 -25 31 -25 4 0 32 26 62 57 55 57 55 58 77 38 l21
-19 -78 -78 c-43 -43 -82 -78 -88 -78 -5 0 -56 46 -112 102 l-103 102 73 77
c39 42 77 77 83 78 6 0 17 -6 24 -15z m6413 -201 c60 -68 77 -97 77 -130 0
-90 -109 -182 -195 -165 -28 5 -145 117 -144 137 0 9 215 195 225 195 3 0 19
-16 37 -37z m-6610 -15 c8 -11 5 -23 -11 -43 -12 -15 -22 -31 -22 -35 0 -4 43
-40 95 -80 88 -69 94 -76 82 -94 -8 -11 -18 -21 -23 -23 -5 -2 -52 31 -104 72
l-95 74 -30 -35 c-30 -35 -31 -35 -48 -16 -17 18 -15 22 55 110 40 51 77 91
82 89 5 -2 14 -10 19 -19z m6845 -270 c61 -84 68 -123 26 -164 -25 -26 -61
-29 -105 -10 -13 6 -17 -1 -22 -31 -3 -21 -13 -56 -22 -77 l-17 -39 -23 28
-22 29 23 69 c22 66 22 88 -2 116 -2 2 -23 -13 -48 -33 -52 -42 -57 -43 -74
-15 -12 18 -12 24 0 35 28 27 213 163 223 164 6 0 34 -32 63 -72z m-7105 -53
c18 -13 17 -17 -23 -75 -43 -63 -45 -81 -12 -99 18 -9 25 -3 59 49 39 61 52
70 72 47 8 -11 2 -28 -29 -75 -28 -43 -36 -63 -27 -68 7 -4 22 -14 34 -22 21
-13 24 -10 68 57 42 63 49 69 66 58 11 -7 18 -17 17 -22 -2 -6 -28 -50 -58
-98 -38 -59 -60 -85 -69 -81 -28 10 -241 149 -241 157 0 11 113 187 120 187 3
-1 13 -7 23 -15z m7270 -187 c73 -115 83 -137 67 -148 -24 -16 -28 -13 -71 55
-22 36 -43 65 -45 65 -3 0 -16 -7 -29 -16 l-24 -16 41 -65 c33 -52 38 -67 27
-74 -26 -16 -36 -9 -75 50 l-40 60 -32 -20 c-36 -23 -36 -20 25 -116 33 -52
33 -52 12 -64 -26 -14 -28 -12 -99 100 -29 47 -49 86 -44 88 5 2 61 37 124 77
63 41 118 75 122 75 4 1 22 -23 41 -51z m-7344 -123 c156 -87 144 -77 130
-107 -11 -25 -16 -26 -126 -33 l-115 -7 78 -45 c43 -24 80 -46 82 -48 2 -2 -2
-14 -10 -28 l-13 -24 -132 74 -133 75 15 29 15 28 118 3 117 3 -87 48 c-84 46
-87 49 -76 72 6 14 13 25 16 25 3 0 57 -29 121 -65z m7524 -184 l17 -29 -98
-119 c-53 -65 -101 -119 -107 -120 -5 -1 -17 9 -25 22 -13 22 -12 26 10 50
l24 25 -26 54 c-27 54 -27 54 -65 49 -34 -4 -40 -2 -52 21 -8 14 -12 28 -10
30 3 3 168 27 304 45 6 0 18 -12 28 -28z m-7630 -101 c70 -48 88 -125 47 -198
-27 -49 -66 -72 -119 -72 -74 0 -169 68 -173 123 -4 67 26 137 70 162 40 23
131 15 175 -15z m7761 -157 c6 -19 -4 -30 -70 -80 -42 -31 -71 -59 -65 -61 6
-2 42 1 80 7 104 16 107 16 124 -26 8 -21 12 -41 9 -45 -4 -4 -67 -32 -140
-62 l-133 -55 -9 25 c-6 14 -10 27 -10 29 0 2 43 20 96 41 53 21 92 40 86 42
-5 1 -50 -4 -99 -12 -48 -9 -93 -16 -99 -16 -10 0 -38 49 -32 55 2 2 43 33 93
69 49 36 87 66 84 66 -3 0 -48 -18 -100 -40 -86 -36 -95 -38 -106 -23 -7 9
-13 22 -13 28 0 6 62 36 138 67 135 55 137 55 148 34 6 -11 15 -31 18 -43z
m-8077 -222 c25 -16 32 -17 37 -6 3 8 13 11 26 8 16 -4 20 -11 16 -28 -4 -17
0 -25 20 -34 23 -10 26 -9 31 9 6 21 12 24 37 14 11 -4 13 -14 9 -35 -5 -24
-1 -31 26 -46 30 -18 41 -46 21 -58 -5 -3 -20 1 -32 9 -30 22 -48 20 -48 -4 0
-12 12 -26 30 -35 31 -16 36 -30 21 -54 -7 -11 -14 -10 -40 8 -26 19 -32 20
-37 8 -9 -24 -44 -8 -44 19 0 23 -41 56 -47 38 -9 -25 -21 -34 -37 -28 -13 5
-17 14 -12 35 4 24 0 31 -28 49 -25 15 -33 26 -29 40 6 24 16 25 49 3 22 -14
27 -14 35 -2 14 23 11 28 -26 46 -23 11 -34 22 -30 31 3 7 5 18 5 23 0 14 12
11 47 -10z m5157 -5580 c41 -177 42 -187 15 -194 -13 -3 -25 -5 -27 -2 -2 2
-14 48 -26 102 l-23 98 -7 -111 c-7 -109 -8 -112 -32 -117 -29 -5 -33 0 -93
118 -22 44 -40 77 -41 73 0 -3 11 -52 24 -107 l24 -101 -25 -6 c-13 -4 -26 -4
-28 -2 -10 10 -72 289 -65 293 4 2 24 7 46 10 l39 6 46 -87 47 -87 7 101 7
100 37 10 c20 6 39 10 43 11 3 1 18 -48 32 -108z m-1889 12 c-19 -44 -19 -43
6 -43 13 0 25 11 35 35 9 22 21 35 32 35 29 0 31 -9 16 -46 -12 -30 -12 -35 0
-40 19 -7 8 -44 -14 -44 -9 0 -22 -11 -28 -25 -16 -35 -16 -35 13 -35 26 0 29
-7 19 -34 -4 -11 -14 -13 -34 -10 -25 5 -29 2 -41 -30 -10 -28 -19 -36 -37
-36 -20 0 -23 4 -18 20 3 11 9 28 12 39 4 13 0 20 -14 23 -16 5 -23 -2 -35
-33 -16 -41 -22 -45 -46 -30 -12 8 -12 14 -1 42 11 25 11 34 2 37 -21 7 -14
42 8 42 18 0 40 26 40 49 0 6 -9 11 -20 11 -15 0 -20 7 -20 26 0 24 3 26 30
20 28 -5 32 -2 46 33 13 32 19 37 39 33 24 -4 24 -5 10 -39z m1563 -116 c13
-75 22 -144 18 -152 -3 -8 -16 -15 -29 -15 -22 0 -25 7 -46 130 -13 72 -25
139 -28 150 -4 13 1 20 19 23 12 2 27 3 33 2 5 -1 20 -63 33 -138z m-144 -31
c43 -75 77 -138 75 -140 -2 -2 -16 -6 -31 -10 -22 -5 -29 -1 -46 28 -15 26
-26 33 -43 30 -99 -14 -97 -13 -103 -49 -4 -20 -13 -35 -21 -35 -7 0 -20 -3
-29 -6 -10 -4 -16 -1 -16 10 0 13 52 240 66 288 5 15 35 27 59 23 6 0 45 -63
89 -139z m-977 108 c83 -53 84 -207 3 -266 -57 -42 -171 -27 -206 28 -38 58
-34 166 9 212 48 52 136 64 194 26z m224 -100 l54 -94 5 93 c5 92 5 92 33 95
l27 3 0 -150 0 -151 -34 0 c-33 0 -37 4 -88 93 -29 50 -54 85 -55 77 -1 -8 -5
-50 -8 -92 -6 -74 -8 -78 -31 -78 l-24 0 0 148 c0 82 2 151 5 154 3 2 18 3 33
0 24 -3 37 -19 83 -98z m399 76 l0 -30 -80 0 -80 0 0 -33 0 -34 75 5 75 5 0
-32 0 -31 -75 0 -75 0 0 -41 0 -40 85 3 85 3 0 -27 0 -28 -115 0 -115 0 0 89
c0 48 -3 116 -6 149 l-7 61 91 3 c50 2 102 4 116 5 23 2 26 -1 26 -27z"/>
<path d="M4445 8664 c-555 -57 -958 -168 -1405 -390 -375 -186 -685 -409 -986
-709 -253 -252 -410 -450 -590 -746 -79 -131 -215 -403 -268 -539 -67 -172
-66 -195 2 -35 203 483 461 866 836 1240 615 614 1394 990 2281 1102 107 14
211 18 445 17 317 0 427 -9 681 -55 790 -142 1510 -523 2067 -1093 133 -136
166 -155 49 -28 -558 606 -1267 1007 -2070 1172 -235 48 -389 62 -702 65 -165
2 -318 1 -340 -1z"/>
<path d="M3990 7621 l0 -249 24 -29 c14 -16 44 -38 68 -48 24 -10 67 -29 97
-42 l54 -23 103 41 c71 28 112 51 129 71 l25 30 0 249 0 250 -29 -22 c-43 -32
-117 -36 -175 -11 l-46 21 -46 -21 c-58 -25 -132 -21 -175 11 l-29 22 0 -250z
m292 203 c31 -16 127 -16 176 1 l22 7 0 -162 0 -163 -67 64 c-78 74 -174 150
-253 199 l-54 35 48 7 c27 4 54 12 59 17 15 15 33 14 69 -5z m-177 -63 c-6 -5
-25 10 -25 20 0 5 6 4 14 -3 8 -7 12 -15 11 -17z m5 -31 c45 -27 103 -66 129
-87 64 -51 221 -204 233 -227 9 -17 7 -18 -18 -13 -23 4 -26 3 -13 -6 15 -10
15 -12 -5 -28 -19 -17 -19 -18 -3 -19 10 0 15 5 12 10 -3 6 -1 10 4 10 20 0
11 -18 -18 -39 -32 -23 -56 -28 -45 -8 6 10 4 10 -7 0 -7 -7 -22 -13 -34 -13
-19 1 -19 1 -2 14 23 18 22 29 -2 14 -15 -9 -23 -9 -35 1 -9 8 -16 9 -16 3 0
-6 5 -12 12 -14 6 -2 8 -9 4 -16 -3 -6 -13 -9 -21 -6 -8 4 -12 10 -9 15 3 5 0
9 -5 9 -16 0 -13 -20 4 -26 8 -4 12 -11 8 -18 -3 -6 3 -3 15 7 16 15 25 16 39
8 14 -8 15 -11 3 -12 -8 -1 -21 -1 -27 0 -7 1 -13 -3 -13 -9 0 -5 -12 -10 -26
-10 -14 0 -23 -4 -20 -9 3 -5 0 -11 -8 -14 -8 -3 -17 1 -20 9 -3 8 -16 14 -28
14 -30 1 -74 25 -60 34 13 7 42 -3 42 -15 0 -5 5 -9 12 -9 6 0 8 3 5 7 -4 3 0
15 10 25 9 11 11 18 5 18 -7 0 -12 -4 -12 -10 0 -5 -9 -10 -21 -10 -11 0 -17
5 -14 10 3 6 -1 10 -9 10 -9 0 -16 -4 -16 -10 0 -5 -9 -10 -21 -10 -11 0 -17
5 -14 10 3 6 2 10 -4 10 -5 0 -11 -5 -13 -12 -3 -7 -10 -8 -17 -4 -11 7 -11
10 0 18 11 7 9 8 -4 4 -25 -8 -44 4 -26 15 11 6 9 9 -7 9 -11 0 -21 7 -21 15
0 21 30 29 43 11 8 -12 29 -16 78 -16 42 0 65 -4 61 -10 -3 -5 1 -10 10 -10 9
0 13 5 10 10 -4 6 10 10 36 10 27 0 46 6 54 17 7 9 17 13 25 8 10 -6 9 -10 -1
-17 -11 -8 -10 -9 3 -4 10 3 24 -1 32 -9 18 -19 23 -19 23 -1 0 8 -3 15 -6 14
-3 0 -13 0 -21 1 -13 1 -13 2 0 11 10 6 22 5 36 -5 18 -11 21 -11 21 1 0 12
-25 20 -51 15 -6 -1 -20 0 -32 3 -20 5 -21 10 -14 35 4 15 13 38 19 50 7 11 8
21 4 21 -4 0 -17 -17 -28 -38 -13 -25 -28 -38 -45 -41 -14 -1 -29 -8 -33 -15
-6 -8 -10 -8 -14 2 -2 6 -9 12 -14 12 -6 0 -7 -4 -4 -10 3 -5 2 -10 -4 -10 -5
0 -12 6 -15 13 -5 10 -7 10 -12 0 -3 -7 -10 -13 -15 -13 -6 0 -7 5 -4 10 3 6
-1 10 -10 10 -9 0 -13 -4 -10 -10 3 -5 2 -10 -3 -10 -5 0 -16 14 -25 31 -14
29 -16 30 -27 13 -11 -18 -11 -18 -6 -1 5 15 1 18 -17 15 -17 -2 -22 -10 -22
-33 0 -20 -6 -31 -17 -33 -17 -3 -18 11 -18 187 0 153 3 191 13 191 8 0 51
-22 97 -50z m44 1 c-4 -3 -9 0 -11 7 -3 6 -10 9 -15 6 -7 -4 -8 -2 -4 5 6 9
11 9 22 0 8 -6 12 -15 8 -18z m66 -26 c0 -12 -19 -12 -23 0 -4 9 -1 12 9 8 7
-3 14 -7 14 -8z m27 -37 c-3 -8 -6 -5 -6 6 -1 11 2 17 5 13 3 -3 4 -12 1 -19z
m83 -58 c0 -5 -5 -10 -11 -10 -5 0 -7 5 -4 10 3 6 8 10 11 10 2 0 4 -4 4 -10z
m30 -14 c0 -3 -4 -8 -10 -11 -5 -3 -10 -1 -10 4 0 6 5 11 10 11 6 0 10 -2 10
-4z m85 -85 c3 -5 1 -12 -5 -16 -5 -3 -10 1 -10 9 0 18 6 21 15 7z"/>
<path d="M4427 7784 c-8 -8 1 -24 14 -24 5 0 9 7 9 15 0 15 -12 20 -23 9z"/>
<path d="M4350 7770 c0 -5 7 -10 16 -10 8 0 12 5 9 10 -3 6 -10 10 -16 10 -5
0 -9 -4 -9 -10z"/>
<path d="M4381 7740 c-13 -11 -18 -20 -12 -20 6 0 8 -8 4 -17 -3 -12 0 -10 11
5 10 13 22 19 29 15 7 -4 5 2 -3 12 -14 17 -13 18 3 12 11 -4 16 -3 12 3 -9
14 -17 12 -44 -10z"/>
<path d="M4300 7730 c-11 -7 -11 -10 -2 -10 8 0 10 -5 6 -12 -6 -10 -5 -10 8
-1 8 7 19 9 24 5 4 -4 2 1 -5 11 -7 9 -14 17 -15 17 0 0 -8 -5 -16 -10z"/>
<path d="M4432 7701 c4 -13 18 -16 19 -4 0 4 -5 9 -11 12 -7 2 -11 -2 -8 -8z"/>
<path d="M4166 7583 c-12 -12 -5 -23 14 -23 11 0 20 4 20 9 0 11 -26 22 -34
14z"/>
<path d="M4074 7566 c-6 -6 -14 -23 -17 -37 -6 -23 -4 -25 25 -23 43 3 65 38
31 51 -10 4 -20 10 -23 14 -3 4 -10 2 -16 -5z"/>
<path d="M4163 7542 c-13 -2 -23 -9 -23 -17 0 -7 -3 -20 -6 -29 -5 -13 1 -16
34 -16 38 0 52 11 52 40 0 14 -32 26 -57 22z"/>
<path d="M4235 7510 c-3 -5 3 -10 14 -10 12 0 21 5 21 10 0 6 -6 10 -14 10 -8
0 -18 -4 -21 -10z"/>
<path d="M4230 7464 c0 -10 7 -14 22 -12 32 5 35 28 4 28 -17 0 -26 -5 -26
-16z"/>
<path d="M4088 7353 c7 -3 16 -2 19 1 4 3 -2 6 -13 5 -11 0 -14 -3 -6 -6z"/>
<path d="M4148 7353 c7 -3 16 -2 19 1 4 3 -2 6 -13 5 -11 0 -14 -3 -6 -6z"/>
<path d="M4240 7345 c-9 -10 -9 -15 -1 -15 6 0 11 4 11 9 0 5 8 12 18 14 14 4
14 5 1 6 -9 0 -22 -6 -29 -14z"/>
<path d="M4318 7353 c7 -3 16 -2 19 1 4 3 -2 6 -13 5 -11 0 -14 -3 -6 -6z"/>
<path d="M4400 7340 c0 -5 5 -10 11 -10 5 0 7 5 4 10 -3 6 -8 10 -11 10 -2 0
-4 -4 -4 -10z"/>
<path d="M4229 7301 c11 -7 11 -9 0 -14 -8 -3 -5 -6 8 -6 16 -1 21 3 17 14 -4
8 -14 15 -23 15 -13 0 -13 -2 -2 -9z"/>
<path d="M5083 7852 c-84 -30 -131 -73 -124 -114 0 -5 -4 -7 -10 -5 -16 3 -60
-105 -48 -117 6 -6 13 -6 21 2 15 15 48 16 48 2 0 -6 -7 -13 -16 -17 -13 -5
-11 -10 10 -28 30 -25 33 -35 11 -35 -15 0 -19 -15 -16 -57 1 -11 -3 -24 -8
-28 -6 -3 -11 -11 -11 -16 0 -13 40 -1 63 19 10 9 17 11 17 4 0 -13 -34 -37
-67 -46 -16 -5 -23 -2 -26 11 -4 15 -5 15 -6 -3 0 -11 8 -29 19 -39 11 -10 20
-26 20 -36 0 -23 77 -73 137 -89 26 -7 52 -17 58 -21 15 -15 27 -10 13 4 -7 8
-29 17 -48 21 -42 8 -130 55 -143 77 -13 21 11 69 39 80 15 5 33 -1 64 -22 34
-23 54 -29 97 -29 57 0 110 17 131 42 13 17 55 13 71 -6 5 -6 11 -25 13 -41 3
-26 -3 -33 -50 -61 -30 -18 -71 -35 -92 -39 -21 -4 -44 -13 -51 -21 -12 -15 1
-20 17 -6 5 5 29 14 54 21 51 14 140 70 140 88 0 6 8 25 17 41 16 28 16 30 -5
57 -12 15 -22 22 -22 14 0 -11 -2 -11 -10 1 -13 21 -12 31 3 29 23 -3 37 1 37
11 0 6 -11 10 -24 10 -19 0 -24 5 -23 20 1 11 5 20 10 20 4 0 6 4 3 9 -3 5 4
11 15 14 20 5 19 7 -11 34 -26 23 -30 33 -25 55 9 35 38 41 64 14 21 -23 27
-37 14 -35 -26 4 -63 -3 -58 -11 3 -5 13 -6 22 -3 11 4 14 3 9 -5 -4 -8 -2
-10 7 -6 8 3 18 0 22 -5 3 -6 11 -9 16 -6 5 4 9 0 9 -8 0 -8 10 -22 21 -33 19
-16 18 -13 -5 23 -14 24 -26 49 -26 57 0 8 -4 17 -9 21 -5 3 -12 18 -16 34 -3
16 -13 32 -21 35 -8 3 -14 14 -14 24 0 22 -53 66 -106 88 -59 25 -161 28 -221
6z m227 -23 c67 -29 92 -57 82 -94 -12 -43 -53 -51 -101 -20 -68 45 -149 45
-214 0 -46 -31 -87 -23 -99 20 -9 35 8 57 64 86 85 43 180 46 268 8z m-17
-131 c73 -52 88 -173 30 -246 -109 -135 -313 -65 -313 109 0 142 164 221 283
137z m-323 -5 c14 -9 27 -18 29 -19 2 -2 -4 -10 -12 -18 -10 -11 -25 -14 -45
-10 -28 6 -29 8 -19 35 13 34 15 34 47 12z m2 -235 c-6 -6 -7 0 -4 19 5 21 7
23 10 9 2 -10 0 -22 -6 -28z m440 -28 c20 0 22 -8 8 -30 -8 -13 -10 -13 -10 1
0 9 -13 22 -30 29 -16 7 -30 17 -30 22 0 5 10 2 22 -6 12 -9 30 -16 40 -16z"/>
<path d="M5122 7824 c-20 -36 13 -73 51 -58 22 8 31 42 17 59 -17 20 -57 19
-68 -1z m53 -24 c0 -22 -29 -18 -33 3 -3 14 1 18 15 15 10 -2 18 -10 18 -18z"/>
<path d="M5224 7804 c-17 -39 -10 -59 10 -32 12 16 14 15 25 -9 14 -30 26 -22
36 25 7 33 -10 47 -18 15 -3 -14 -6 -12 -15 10 -15 35 -20 34 -38 -9z"/>
<path d="M5067 7814 c-8 -9 21 -64 33 -64 13 0 13 6 -5 40 -17 32 -18 33 -28
24z"/>
<path d="M5325 7780 c-3 -5 -3 -20 0 -33 5 -17 4 -18 -4 -7 -5 8 -13 11 -17 7
-4 -4 0 -15 9 -24 16 -16 18 -16 34 -1 14 14 14 20 3 33 -11 13 -10 14 5 9 13
-5 16 -3 13 7 -6 17 -34 24 -43 9z"/>
<path d="M5000 7767 c0 -8 10 -23 23 -35 18 -17 26 -19 35 -10 17 17 15 31 -3
24 -9 -3 -20 3 -27 14 -15 23 -28 26 -28 7z"/>
<path d="M5113 7700 c-80 -41 -111 -132 -71 -209 32 -62 66 -84 135 -89 48 -3
64 0 92 20 123 84 76 280 -70 295 -32 3 -56 -2 -86 -17z m97 -41 c0 -4 -4 -11
-10 -14 -5 -3 -10 -40 -10 -81 0 -73 0 -74 26 -74 17 0 28 6 31 20 7 25 23 26
23 1 0 -11 3 -26 6 -35 5 -14 -5 -16 -75 -16 -74 0 -98 8 -71 25 6 3 10 39 10
80 0 41 -4 77 -10 80 -22 13 -8 22 35 21 25 0 45 -3 45 -7z"/>
<path d="M4866 7585 c-20 -30 -20 -36 -2 -29 8 3 16 16 19 30 5 30 3 30 -17
-1z"/>
<path d="M4873 7542 c-13 -2 -23 -5 -23 -7 0 -7 47 -55 54 -55 4 0 0 7 -9 16
-12 13 -13 19 -4 30 14 18 11 21 -18 16z"/>
<path d="M4910 7525 c-14 -16 -3 -20 19 -6 8 5 9 11 3 15 -5 3 -15 -1 -22 -9z"/>
<path d="M5480 7525 c14 -17 5 -35 -18 -36 -12 0 -13 -2 -4 -6 12 -5 62 33 62
47 0 3 -12 7 -26 8 -22 2 -24 0 -14 -13z"/>
<path d="M5450 7515 c7 -9 15 -13 17 -11 7 7 -7 26 -19 26 -6 0 -6 -6 2 -15z"/>
<path d="M5007 7372 c-2 -4 4 -15 14 -24 15 -14 18 -14 23 -2 3 8 7 17 8 21 4
9 -40 14 -45 5z"/>
<path d="M5342 7364 c10 -10 20 -16 22 -13 3 3 -5 11 -17 18 -21 13 -21 12 -5
-5z"/>
<path d="M5061 7343 c-10 -26 -10 -27 4 -9 8 11 15 23 15 28 0 15 -7 8 -19
-19z"/>
<path d="M5317 7350 c3 -11 9 -17 15 -14 5 3 4 12 -3 20 -16 19 -18 18 -12 -6z"/>
<path d="M5082 7335 c-9 -18 -8 -26 1 -31 7 -4 9 -4 5 1 -4 4 -3 16 3 27 6 11
9 22 6 24 -2 2 -9 -7 -15 -21z"/>
<path d="M5285 7349 c-5 -7 -4 -14 3 -17 7 -2 9 -9 6 -15 -5 -9 -4 -9 6 0 8 7
9 16 2 28 -7 14 -11 15 -17 4z"/>
<path d="M5243 7339 c-9 -9 -8 -15 2 -25 16 -16 35 -18 35 -4 0 6 -5 9 -11 8
-6 -2 -14 3 -17 11 -3 9 0 11 8 6 9 -5 11 -4 6 3 -9 15 -9 15 -23 1z"/>
<path d="M5106 7324 c-8 -21 -8 -24 3 -24 5 0 11 9 14 20 6 24 -8 27 -17 4z"/>
<path d="M5140 7323 c0 -12 5 -25 10 -28 13 -8 13 15 0 35 -8 12 -10 11 -10
-7z"/>
<path d="M5177 7310 c-3 -12 0 -20 8 -20 8 0 11 8 8 20 -3 11 -7 20 -8 20 -1
0 -5 -9 -8 -20z"/>
<path d="M4630 7018 c-151 -12 -259 -38 -261 -62 -3 -81 -6 -106 -11 -111 -3
-4 -32 -13 -63 -21 -141 -37 -315 -133 -363 -201 -11 -15 -23 -52 -27 -81 -7
-54 -37 -91 -59 -73 -6 5 -26 12 -43 16 -39 8 -44 25 -7 25 27 0 84 29 84 42
0 11 -36 28 -59 28 -40 0 -21 19 22 22 l42 3 -37 18 c-35 18 -40 18 -88 2 -54
-18 -70 -36 -51 -58 8 -10 7 -17 -1 -25 -9 -9 -8 -21 1 -50 16 -46 3 -78 -51
-128 -34 -32 -122 -94 -133 -94 -4 0 -26 -14 -51 -31 l-44 -30 6 -65 c7 -62 6
-65 -15 -71 -18 -5 -21 -10 -16 -32 3 -14 12 -32 20 -40 11 -11 16 -11 32 0
47 33 224 194 238 215 15 23 14 24 -8 24 -12 0 -47 -15 -77 -34 -61 -38 -82
-38 -35 0 32 27 184 104 203 104 7 0 12 -15 12 -38 0 -33 -10 -48 -94 -140
-151 -164 -234 -301 -223 -370 8 -45 24 -62 133 -138 94 -65 111 -81 129 -118
7 -14 22 -22 45 -24 19 -2 40 -8 47 -14 7 -5 32 -16 57 -23 49 -15 68 -6 42
20 -20 20 -30 55 -19 66 4 4 38 19 74 33 56 21 69 23 90 12 13 -7 22 -19 20
-27 -2 -8 -6 -48 -9 -89 -4 -61 -9 -80 -31 -107 -14 -18 -29 -33 -32 -33 -3 0
-14 19 -23 43 -16 40 -18 41 -31 23 -8 -11 -15 -36 -15 -57 0 -28 -6 -41 -25
-53 -23 -15 -25 -22 -25 -92 0 -120 23 -151 142 -194 29 -10 112 -45 183 -77
l130 -59 3 -50 c5 -102 -2 -96 152 -125 183 -35 470 -23 570 24 22 11 26 20
30 74 3 34 7 63 10 66 3 2 37 14 75 27 39 12 114 46 168 74 80 41 109 64 159
119 37 42 60 76 59 90 -2 64 -17 194 -24 205 -14 21 -25 13 -39 -30 -8 -24
-21 -43 -29 -43 -23 0 -77 91 -89 150 -19 91 -6 105 98 105 53 0 92 -13 92
-30 0 -5 -13 -25 -30 -43 -16 -19 -30 -38 -30 -42 0 -9 50 2 123 27 62 21 79
19 53 -7 -26 -27 -37 -53 -26 -60 15 -9 90 68 90 92 0 21 57 78 147 148 60 47
77 74 76 119 -1 49 -61 170 -150 302 -97 145 -117 186 -109 219 4 14 11 25 16
25 14 0 151 -77 169 -95 7 -7 12 -18 10 -23 -2 -6 -33 8 -68 29 -102 62 -116
52 -40 -28 75 -80 193 -183 209 -183 12 0 50 59 50 78 0 9 -7 11 -19 7 -26 -8
-35 21 -26 83 7 56 9 54 -118 133 -136 83 -186 149 -156 205 10 19 10 30 2 43
-9 14 -8 22 4 34 22 22 10 34 -53 52 -46 13 -61 14 -89 4 -33 -12 -35 -11 -83
33 -77 72 -201 127 -392 175 -35 9 -35 9 -38 69 -4 75 -7 77 -159 98 -143 20
-209 23 -323 14z m388 -42 l72 -18 0 -1113 c0 -1051 -1 -1115 -17 -1123 -24
-13 -166 -39 -233 -43 -104 -7 -240 1 -337 21 -53 11 -100 23 -105 28 -8 8 -9
287 -8 1604 l0 627 73 15 c39 8 83 17 97 20 64 11 387 -1 458 -18z m-915 -301
c-25 -25 -44 -47 -41 -51 3 -3 23 4 44 15 64 35 73 24 22 -25 -30 -27 -48 -54
-48 -67 1 -19 2 -20 13 -6 15 20 88 69 102 69 5 0 3 -6 -5 -13 -23 -18 -63
-77 -57 -84 3 -3 26 4 50 16 55 27 81 27 45 0 -16 -11 -28 -27 -28 -35 0 -15
43 -30 59 -20 15 9 43 -51 36 -75 -4 -12 -27 -29 -52 -40 l-45 -19 17 -26 c11
-18 14 -29 7 -36 -19 -19 -86 -12 -154 15 -86 35 -160 37 -182 5 -9 -12 -16
-37 -16 -55 0 -17 -4 -34 -9 -38 -12 -7 -63 -97 -58 -102 8 -7 98 26 123 46
15 11 33 21 40 21 18 0 18 9 -2 31 -9 10 -14 26 -12 36 2 13 9 8 28 -22 l24
-40 4 30 c2 17 8 34 13 40 15 15 29 -15 22 -49 -7 -32 2 -31 44 6 18 17 25 18
44 8 14 -8 42 -10 77 -6 55 7 56 6 37 -14 -10 -11 -33 -25 -52 -32 -29 -11
-33 -16 -28 -37 6 -23 5 -24 -39 -18 -26 4 -46 5 -46 2 0 -2 17 -13 38 -24 42
-23 25 -27 -43 -10 -67 17 -76 6 -23 -27 53 -33 61 -48 21 -40 -89 17 -106 19
-98 7 9 -16 44 -30 145 -56 75 -20 82 -23 56 -30 -15 -4 -66 -2 -113 4 -95 13
-118 9 -52 -10 27 -8 93 -12 172 -11 82 2 127 -1 127 -8 0 -5 -2 -10 -5 -10
-3 0 -38 -6 -78 -14 -40 -8 -83 -17 -97 -19 -25 -4 -25 -5 -3 -12 12 -4 25
-16 29 -27 5 -16 12 -19 37 -14 18 4 49 15 70 26 43 23 47 24 47 10 0 -6 -11
-15 -25 -22 -26 -12 -25 -28 3 -28 9 0 24 -5 32 -10 13 -9 12 -12 -4 -22 -18
-10 -17 -13 15 -40 l34 -29 -40 6 c-22 3 -48 9 -59 12 -12 3 -16 1 -12 -6 4
-6 15 -11 24 -11 22 0 82 -37 82 -50 0 -6 -12 -4 -30 5 -37 19 -51 19 -44 0 5
-12 0 -12 -28 -5 -18 6 -62 10 -98 9 l-65 -1 115 -23 c159 -33 164 -39 158
-192 -3 -93 -7 -115 -22 -126 -9 -7 -16 -19 -14 -26 2 -8 -18 -21 -49 -33 -29
-12 -53 -27 -53 -34 0 -9 -11 -14 -29 -14 -20 0 -30 -6 -34 -20 -4 -14 -10
-18 -22 -14 -9 4 -27 1 -39 -6 -19 -9 -28 -9 -46 0 -21 11 -22 10 -18 -14 6
-32 1 -32 -29 -4 -30 28 -37 19 -24 -28 6 -21 9 -40 6 -42 -7 -7 -32 53 -39
94 l-6 41 53 6 c72 8 97 14 113 28 8 6 35 15 60 20 25 5 61 21 80 36 18 16 48
39 65 52 l32 25 -6 75 c-6 72 -8 78 -45 113 -32 30 -50 38 -97 43 -99 13 -172
1 -279 -44 -114 -47 -150 -51 -167 -18 -7 12 -25 39 -41 59 -22 29 -27 41 -19
55 14 27 53 60 84 72 18 7 27 18 27 33 0 13 3 34 7 47 6 22 5 23 -18 10 -13
-7 -49 -16 -79 -20 -30 -3 -86 -19 -124 -34 -76 -30 -91 -25 -80 29 6 28 66
133 98 173 62 76 151 180 162 188 36 29 64 89 64 139 1 66 27 124 73 159 33
25 37 33 37 73 0 38 6 51 43 91 43 48 121 103 144 103 7 0 -8 -20 -34 -45z
m1263 0 c43 -25 80 -73 100 -130 7 -21 21 -33 45 -41 34 -11 51 -31 123 -139
18 -27 40 -56 50 -64 9 -8 14 -21 11 -32 -7 -22 19 -116 39 -138 57 -65 226
-347 226 -377 0 -19 -47 -15 -85 8 -37 22 -103 23 -133 2 -30 -21 -28 -29 11
-40 37 -11 83 -82 72 -111 -10 -26 -112 -113 -133 -113 -10 0 -54 23 -97 50
-44 28 -96 55 -115 60 -88 25 -238 0 -277 -45 -24 -27 -63 -141 -63 -182 0
-15 12 -36 29 -52 38 -35 245 -119 314 -127 81 -10 81 -29 2 -110 -35 -35 -69
-64 -75 -64 -22 0 -27 44 -12 98 8 29 13 54 11 56 -2 3 -23 0 -45 -6 -53 -15
-78 -5 -70 26 5 22 4 23 -44 18 -49 -4 -50 -4 -50 23 0 25 -3 27 -28 22 -34
-7 -51 2 -52 28 -15 232 -10 269 37 300 32 21 142 44 218 46 58 1 59 1 25 11
-34 10 -133 6 -178 -8 -18 -5 -21 -3 -16 11 6 14 3 16 -17 10 -13 -4 -28 -11
-33 -16 -6 -5 -16 -9 -24 -9 -27 0 8 29 49 42 22 6 39 15 39 20 0 7 -30 4 -67
-8 -15 -4 -15 -2 -7 21 4 9 18 22 33 28 26 11 26 11 -14 17 -36 5 -38 7 -20
16 11 6 33 14 49 18 l29 7 -23 25 c-29 30 -26 30 44 -1 68 -30 83 -31 91 -6 3
10 18 22 33 26 l27 7 -25 9 c-14 4 -58 13 -97 19 -40 7 -73 15 -73 19 0 5 60
11 133 14 72 3 143 10 157 16 20 9 12 10 -40 5 -101 -11 -143 -10 -147 3 -3 7
18 16 54 23 31 7 80 23 108 36 46 22 47 24 15 18 -90 -15 -110 -16 -110 -7 0
6 18 18 40 28 22 10 47 26 56 36 15 17 14 17 -32 3 -26 -8 -59 -14 -73 -14
l-26 0 30 26 30 25 -42 -5 c-43 -6 -53 0 -32 21 7 7 -6 19 -45 41 -48 27 -106
90 -106 115 0 4 11 5 24 1 23 -5 24 -4 28 64 3 52 9 76 23 92 16 18 17 23 5
30 -8 6 -27 10 -42 10 -16 0 -28 5 -28 11 0 8 19 10 60 6 33 -3 60 -1 60 3 0
5 -12 18 -27 29 -22 16 -24 20 -10 21 10 0 34 -7 54 -15 20 -8 38 -14 40 -12
2 2 -10 21 -27 42 -17 21 -28 40 -26 42 7 8 60 -29 88 -61 14 -17 30 -28 34
-24 13 13 -20 73 -70 126 -55 58 -53 64 10 27z m309 -85 c4 -6 -5 -10 -19 -10
-14 0 -29 0 -33 -1 -4 0 -9 4 -11 10 -5 14 55 15 63 1z m17 -88 c9 -9 6 -12
-12 -12 -31 0 -61 -19 -42 -27 14 -5 16 -23 3 -23 -11 0 -29 51 -24 66 5 14
60 11 75 -4z m-1850 -57 c0 -5 -5 -11 -11 -13 -6 -2 -11 4 -11 13 0 9 5 15 11
13 6 -2 11 -8 11 -13z m-42 -95 c0 -5 -7 -10 -16 -10 -8 0 -12 5 -9 10 3 6 10
10 16 10 5 0 9 -4 9 -10z m1461 -222 l24 -17 -36 -1 c-39 0 -61 17 -78 61 -15
40 -3 42 34 6 17 -18 43 -40 56 -49z m-941 53 c0 -10 -9 -30 -21 -45 -16 -20
-29 -26 -57 -25 -33 0 -35 1 -17 12 11 7 33 26 50 43 36 37 45 40 45 15z m-69
-651 c28 -15 23 -43 -11 -68 -24 -18 -30 -30 -30 -59 0 -30 -8 -44 -45 -80
-53 -50 -88 -60 -55 -15 12 17 25 55 30 94 13 86 25 117 52 128 31 12 36 12
59 0z m1074 -4 c16 -11 21 -31 26 -103 3 -49 12 -98 20 -110 31 -51 -24 -34
-61 18 -15 19 -22 45 -22 70 1 30 -6 48 -30 74 -17 20 -28 41 -24 50 7 19 66
20 91 1z m-1425 -58 c0 -13 -25 -9 -46 7 -19 15 -19 15 1 30 18 14 20 13 32
-7 7 -13 12 -26 13 -30z m1755 22 c18 -7 16 -10 -18 -24 -44 -19 -62 -14 -44
14 13 21 29 24 62 10z m-1650 -190 c14 -27 25 -52 25 -55 0 -13 -58 -4 -64 11
-12 32 -6 94 10 94 2 0 15 -22 29 -50z m1545 -25 c0 -39 -3 -45 -25 -51 -14
-4 -28 -4 -31 -2 -4 5 44 98 52 98 2 0 4 -20 4 -45z m-374 -273 c-3 -6 -19
-15 -36 -20 -23 -9 -30 -8 -30 2 0 7 15 18 33 23 35 11 42 9 33 -5z m-826 -2
c26 -16 3 -21 -31 -6 -31 13 -32 14 -9 15 14 0 32 -3 40 -9z m-75 -35 c44 -8
81 -14 83 -15 4 0 2 -60 -2 -60 -7 0 -168 79 -174 85 -8 7 4 6 93 -10z m945
-30 c-47 -24 -91 -44 -97 -44 -8 -1 -13 11 -13 28 0 27 3 29 73 43 123 26 129
21 37 -27z"/>
<path d="M4532 6940 c-46 -10 -88 -22 -93 -27 -5 -5 -8 -423 -7 -1079 l3
-1069 70 -19 c102 -27 361 -28 463 -2 44 11 75 25 80 35 4 9 6 494 4 1077 l-2
1061 -63 12 c-34 7 -84 17 -110 22 -74 14 -253 8 -345 -11z m165 -355 l1 -230
97 -5 c113 -6 127 -17 109 -87 -6 -23 -9 -23 -160 -23 -169 0 -171 1 -168 65
0 17 2 139 2 273 l2 243 58 -3 57 -3 2 -230z m203 -445 l0 -50 -100 0 -100 0
0 -65 0 -65 95 0 95 0 0 -45 c0 -43 -1 -44 -36 -51 -20 -4 -63 -4 -95 -1 l-59
5 0 -74 0 -74 104 0 104 0 7 -30 c4 -16 4 -39 0 -50 -6 -20 -13 -20 -173 -18
l-167 3 -3 283 -2 282 165 0 165 0 0 -50z m-60 -592 c58 -30 86 -85 101 -199
9 -70 8 -102 -5 -178 -9 -51 -25 -108 -36 -126 -29 -47 -89 -68 -179 -63 -85
4 -116 23 -151 94 -23 45 -25 59 -25 194 0 130 2 150 23 194 12 27 32 56 44
65 64 46 159 54 228 19z m-69 -638 c26 -15 26 -66 -2 -80 -32 -18 -62 -8 -73
22 -8 22 -6 32 9 48 20 22 37 25 66 10z"/>
<path d="M4691 5459 c-25 -27 -35 -117 -29 -245 6 -103 21 -139 65 -150 34 -9
54 4 77 52 17 33 20 58 18 166 -2 163 -17 198 -87 198 -14 0 -33 -10 -44 -21z"/>
<path d="M4707 4880 c-5 -20 15 -50 34 -50 15 0 10 17 -6 24 -8 3 -15 13 -15
22 0 10 5 14 15 10 8 -3 15 -1 15 4 0 19 -38 10 -43 -10z"/>
<path d="M4760 4871 c0 -12 5 -21 10 -21 6 0 10 6 10 14 0 8 -4 18 -10 21 -5
3 -10 -3 -10 -14z"/>
<path d="M3708 5998 c-46 -54 -108 -142 -108 -152 0 -11 76 -6 92 7 9 6 18 29
21 50 3 21 17 62 31 92 14 30 21 55 17 55 -5 0 -29 -24 -53 -52z"/>
<path d="M3929 5761 c-59 -23 -159 -83 -184 -111 -33 -37 -8 -33 47 8 29 21
91 58 138 80 86 42 85 57 -1 23z"/>
<path d="M3900 5700 c-82 -43 -149 -94 -138 -105 4 -4 35 12 70 36 35 25 83
55 108 68 54 29 69 41 50 40 -8 0 -49 -18 -90 -39z"/>
<path d="M3914 5661 c-44 -22 -92 -54 -108 -70 -35 -37 -15 -43 23 -7 15 13
58 41 96 62 82 44 80 42 73 49 -3 3 -41 -12 -84 -34z"/>
<path d="M5460 6275 c-70 -26 -123 -31 -164 -15 -35 13 -33 -3 6 -35 28 -24
38 -26 97 -23 61 3 66 5 71 27 8 40 28 36 32 -6 3 -40 7 -39 43 12 16 24 29
15 20 -15 -4 -12 -23 -28 -43 -37 -58 -24 -65 -28 -66 -37 -2 -16 30 -14 83 4
l52 17 16 -24 c15 -23 119 -80 129 -70 3 3 -9 27 -25 55 -17 27 -34 70 -37 96
-4 26 -13 54 -21 62 -22 22 -118 16 -193 -11z"/>
<path d="M5736 6011 c-7 -11 31 -41 52 -41 8 0 12 9 10 23 -2 15 -11 23 -30
25 -14 2 -29 -1 -32 -7z"/>
<path d="M5780 5930 c0 -13 42 -40 62 -40 20 0 24 15 8 25 -21 13 -70 23 -70
15z"/>
<path d="M5840 5850 c0 -5 10 -10 23 -10 18 0 19 2 7 10 -19 13 -30 13 -30 0z"/>
<path d="M5460 5823 c0 -5 25 -21 56 -37 31 -16 77 -49 102 -74 26 -24 36 -37
22 -28 -81 53 -218 101 -236 83 -3 -3 21 -15 53 -27 81 -30 183 -82 183 -93 0
-5 -8 -6 -17 -2 -84 32 -299 79 -282 61 4 -4 56 -20 115 -36 60 -16 140 -40
179 -55 55 -21 74 -24 92 -16 13 6 23 17 23 24 0 21 -142 140 -209 176 -59 31
-81 38 -81 24z"/>
<path d="M2707 6934 c-3 -3 -3 -21 0 -40 6 -34 5 -34 -34 -34 -40 0 -124 -36
-130 -56 -3 -8 29 -13 93 -16 79 -4 100 -9 111 -23 7 -10 14 -17 16 -14 2 2
11 16 20 32 11 16 26 27 40 27 20 -1 21 -2 5 -14 -43 -32 -1 -86 56 -72 39 10
59 35 52 68 -6 29 10 40 20 13 8 -21 24 -19 24 3 0 27 -42 62 -74 62 -16 0
-46 -5 -67 -12 -51 -15 -85 0 -105 47 -15 37 -17 39 -27 29z"/>
<path d="M6735 6895 c-19 -37 -23 -40 -60 -39 -22 1 -61 5 -88 9 -39 6 -51 4
-67 -10 -11 -10 -20 -27 -20 -39 0 -15 3 -17 12 -8 22 22 35 13 30 -20 -6 -39
17 -58 69 -58 30 0 38 4 43 23 9 33 8 37 -9 37 -17 0 -20 16 -5 25 15 9 60
-22 60 -40 0 -19 10 -19 34 0 11 8 40 15 65 16 25 0 63 3 85 7 36 7 37 8 20
23 -27 23 -75 37 -112 33 -30 -3 -31 -2 -34 39 l-3 42 -20 -40z"/>
<path d="M2523 6757 c-18 -7 -43 -23 -55 -36 l-23 -23 25 7 c14 4 31 10 38 12
25 10 11 -17 -17 -31 -31 -16 -36 -29 -46 -119 -8 -67 -31 -91 -95 -102 -47
-8 -44 -25 5 -25 l34 0 -25 -37 c-28 -42 -29 -79 -1 -178 l14 -49 13 39 c29
90 50 86 48 -9 -2 -67 2 -80 28 -122 16 -26 34 -49 39 -51 6 -2 9 25 7 72 -3
63 0 83 23 134 15 33 36 68 46 77 25 22 24 29 -6 42 -33 15 -32 45 3 116 31
61 27 68 -20 35 l-30 -22 7 24 c4 13 21 39 36 57 19 21 29 44 29 65 0 18 9 52
20 76 11 23 17 47 14 52 -7 12 -72 10 -111 -4z"/>
<path d="M6835 6761 c-3 -6 4 -26 15 -46 11 -19 20 -51 20 -69 0 -23 11 -47
35 -77 19 -24 35 -52 35 -62 0 -16 -3 -15 -30 4 -16 13 -32 20 -35 18 -2 -3 7
-27 21 -54 29 -57 28 -103 -1 -119 -11 -6 -22 -12 -25 -14 -3 -2 2 -9 12 -16
9 -6 31 -40 48 -75 34 -66 44 -144 27 -203 -12 -44 8 -33 44 24 31 48 34 59
33 126 -1 62 1 73 14 70 9 -2 21 -21 27 -42 14 -48 34 -59 33 -19 -1 16 4 38
11 50 20 38 13 105 -14 145 -14 20 -25 39 -25 41 0 2 13 2 29 -1 16 -2 32 1
35 7 4 6 0 11 -8 11 -29 0 -84 33 -95 57 -6 13 -11 40 -11 59 0 49 -25 102
-54 116 -15 6 -26 16 -26 21 0 9 17 7 54 -8 14 -6 18 -4 14 6 -11 37 -165 78
-183 50z"/>
<path d="M2677 6742 c-27 -30 -51 -122 -32 -122 17 0 55 35 55 51 0 20 15 26
25 9 9 -14 62 -13 71 2 4 7 0 16 -11 22 -10 6 -30 21 -45 34 -34 27 -42 27
-63 4z"/>
<path d="M6727 6730 c-21 -16 -44 -31 -50 -34 -9 -3 -8 -8 3 -15 22 -15 56
-13 74 4 19 20 30 19 22 -2 -7 -18 29 -63 51 -63 16 0 16 5 0 50 -14 42 -44
90 -55 89 -4 0 -24 -13 -45 -29z"/>
<path d="M2908 6713 c-42 -17 -50 -33 -16 -33 44 0 1 -21 -76 -36 -72 -15
-145 -48 -146 -66 0 -5 7 -8 17 -8 11 0 3 -13 -25 -42 -23 -23 -42 -50 -42
-60 0 -17 2 -17 30 -3 40 21 42 20 24 -19 -21 -42 -12 -111 19 -157 31 -46 43
-46 39 0 -7 67 1 81 22 39 15 -32 113 -128 130 -128 13 0 5 36 -14 65 -28 43
-25 64 5 31 41 -45 57 -33 29 22 -37 75 49 103 112 36 19 -19 34 -42 34 -50 0
-19 28 -18 70 4 33 16 35 19 35 75 1 31 -1 57 -3 57 -2 0 -12 -10 -21 -22 -39
-48 -78 18 -47 77 31 58 96 73 96 23 1 -22 2 -21 30 9 29 33 47 90 36 118 -8
23 -68 45 -120 45 -36 0 -46 4 -51 20 -5 17 -15 20 -68 19 -34 0 -79 -7 -99
-16z m-38 -133 c-13 -8 -12 -10 3 -10 29 0 19 -26 -20 -55 l-38 -28 29 31 30
32 -32 0 c-18 0 -32 4 -32 8 0 11 39 30 60 31 13 1 13 0 0 -9z m48 -87 c-9
-10 -23 -33 -33 -51 -12 -25 -22 -33 -35 -29 -11 3 -26 -3 -36 -14 -16 -17
-19 -18 -26 -4 -5 9 -5 22 1 33 9 15 10 14 11 -7 0 -23 1 -24 14 -6 8 11 19
16 30 12 12 -5 24 5 44 38 15 25 31 45 36 45 5 0 2 -8 -6 -17z"/>
<path d="M6398 6713 c-9 -12 -29 -19 -61 -20 -59 -3 -111 -30 -115 -62 -5 -32
26 -109 48 -121 27 -14 30 -13 27 13 -3 32 41 25 76 -13 32 -36 35 -70 6 -96
-21 -19 -22 -19 -36 4 -24 34 -30 27 -30 -33 0 -63 15 -83 68 -91 31 -5 36 -2
57 35 39 70 110 89 134 37 7 -18 6 -31 -7 -56 -22 -42 -12 -50 23 -17 41 39
46 33 17 -23 -14 -27 -25 -54 -25 -60 0 -31 125 84 142 130 16 48 31 24 24
-38 -6 -51 -5 -54 10 -41 47 39 68 148 38 194 -21 31 -4 33 37 4 19 -13 29
-16 29 -8 0 24 -45 78 -82 99 -44 25 -49 35 -13 26 14 -4 25 -3 25 1 -1 18
-76 54 -136 65 -65 12 -120 37 -81 38 28 0 20 15 -18 33 -49 23 -140 23 -157
0z m134 -107 c86 -17 128 -32 128 -46 0 -5 -11 -10 -25 -10 -31 0 -31 -7 -1
-39 33 -34 57 -93 46 -111 -7 -12 -11 -12 -26 1 -9 8 -25 13 -35 11 -12 -2
-26 11 -44 42 -36 62 -83 101 -154 127 -33 12 -58 25 -55 30 8 13 83 11 166
-5z"/>
<path d="M6437 6592 c12 -9 40 -28 63 -42 22 -13 57 -48 77 -77 20 -29 40 -50
44 -47 5 3 18 0 29 -6 44 -24 5 66 -46 105 -25 19 -33 32 -29 45 5 15 -4 19
-58 29 -35 6 -72 11 -83 11 -18 -1 -18 -2 3 -18z"/>
<path d="M2960 6296 c0 -37 5 -48 30 -69 36 -31 37 -36 5 -29 -29 5 -29 5 -10
-41 8 -20 15 -51 15 -69 l-1 -33 -42 47 c-43 49 -85 72 -112 62 -20 -8 -19
-16 6 -48 47 -60 -23 -44 -92 21 -53 49 -66 52 -50 9 21 -52 -37 -18 -68 41
-6 12 -11 43 -11 69 0 42 -2 45 -17 33 -61 -51 -84 -220 -41 -309 l22 -45 6
40 5 40 17 -31 c17 -31 168 -173 168 -158 0 5 -10 32 -22 61 -20 50 -21 53 -4
96 22 58 48 82 73 68 29 -16 174 -76 221 -91 23 -7 42 -19 42 -26 0 -7 15 -22
34 -33 19 -12 40 -29 47 -38 12 -15 11 -16 -8 -11 -13 4 -23 2 -23 -3 0 -11
81 -99 91 -99 4 0 10 14 13 30 3 17 9 44 12 60 8 42 20 29 35 -35 7 -31 17
-54 23 -52 22 7 48 100 42 150 -3 26 -4 47 -2 47 2 0 20 -7 39 -15 48 -20 54
-5 11 28 -19 16 -42 45 -53 65 -20 40 -35 172 -19 172 5 0 19 -11 32 -25 30
-32 40 -32 31 3 -10 41 -47 90 -77 103 -33 14 -37 29 -7 29 41 0 12 25 -33 28
-35 2 -58 -4 -110 -32 -36 -19 -81 -38 -100 -41 -31 -6 -38 -3 -63 27 -46 55
-55 56 -55 4z m280 -91 c38 -20 60 -52 60 -89 0 -23 -3 -27 -12 -18 -7 7 -20
12 -30 12 -28 0 -22 -52 12 -107 39 -61 39 -84 0 -39 -40 45 -87 66 -149 66
l-51 0 0 45 c0 50 -2 49 51 34 30 -9 42 -9 54 1 21 17 19 53 -5 75 -11 10 -20
22 -20 27 0 13 59 9 90 -7z"/>
<path d="M6137 6334 c-10 -11 3 -24 24 -24 30 0 22 -15 -16 -29 -44 -15 -76
-60 -82 -114 l-5 -42 27 33 c14 17 31 32 36 32 13 0 -1 -139 -17 -171 -7 -14
-29 -38 -49 -53 -44 -34 -37 -51 12 -31 47 20 46 20 40 -22 -7 -46 5 -104 29
-140 16 -26 18 -26 25 -8 4 11 8 32 8 46 1 14 7 34 15 44 13 17 15 14 26 -38
6 -31 17 -57 23 -57 6 0 29 19 50 42 38 42 38 43 16 48 -21 5 -20 8 22 43 30
25 38 37 27 37 -36 0 -16 18 27 25 25 3 99 28 165 56 65 27 121 49 124 49 11
0 56 -100 56 -124 0 -14 -10 -44 -21 -66 -12 -23 -19 -43 -16 -46 7 -8 147
125 169 161 l18 30 0 -32 c0 -42 15 -42 36 -2 11 22 16 58 16 115 0 72 -4 89
-28 135 -26 48 -62 82 -48 46 10 -27 -17 -101 -49 -134 -40 -43 -50 -42 -31 3
8 20 13 39 9 42 -5 5 -85 -63 -93 -80 -5 -10 -72 -31 -79 -25 -2 3 5 15 16 26
12 12 21 27 21 35 0 46 -76 21 -122 -39 -18 -25 -37 -45 -42 -45 -12 0 0 100
14 114 19 19 10 28 -22 21 l-33 -7 37 33 c43 39 60 95 33 105 -11 5 -26 -5
-46 -30 -39 -46 -59 -46 -153 4 -55 29 -87 40 -119 40 -24 0 -47 -3 -50 -6z
m193 -124 c0 -5 -9 -14 -19 -20 -23 -12 -34 -40 -25 -64 7 -19 64 -22 96 -5
11 6 21 9 22 7 1 -2 1 -24 -2 -50 l-4 -48 -51 0 c-57 0 -123 -33 -151 -75 -19
-28 -39 -34 -29 -7 4 9 19 35 35 56 45 63 33 139 -15 91 -12 -11 -16 -12 -20
-2 -20 52 54 127 125 127 21 0 38 -4 38 -10z"/>
<path d="M7415 6088 c-7 -33 -31 -68 -46 -68 -5 0 -4 11 1 25 6 16 6 25 -1 25
-5 0 -12 -6 -15 -14 -9 -23 -33 -27 -59 -10 -22 14 -30 14 -67 3 -37 -12 -47
-22 -72 -69 -32 -59 -47 -55 -22 5 20 46 20 51 2 35 -8 -6 -22 -31 -32 -55
-14 -37 -14 -51 -4 -94 25 -105 94 -175 215 -220 144 -53 191 -107 183 -208
-4 -42 -11 -60 -34 -84 -46 -49 -95 -69 -166 -69 -60 -1 -62 -1 -38 -15 14 -8
35 -14 48 -15 12 0 22 -4 22 -10 0 -5 -20 -10 -45 -10 -25 0 -45 -4 -45 -8 0
-36 84 -42 157 -11 105 45 148 103 159 216 5 51 2 65 -23 113 -22 44 -39 61
-83 87 -104 59 -145 90 -164 122 -26 45 -13 68 60 105 75 39 94 73 94 173 0
77 -14 104 -25 51z m-151 -107 c9 -14 -6 -22 -21 -10 -10 9 -18 8 -33 -6 -21
-19 -28 -7 -8 13 14 14 54 16 62 3z m71 -61 c-21 -24 -37 -26 -29 -5 10 26
-41 18 -76 -12 -25 -21 -31 -23 -29 -9 2 9 9 17 14 18 6 0 19 7 30 14 11 8 39
14 64 14 43 0 44 0 26 -20z m-159 -48 c0 -45 0 -46 -9 -15 -8 27 -5 63 5 63 2
0 3 -21 4 -48z m114 24 c0 -2 -16 -13 -35 -25 -31 -18 -35 -25 -35 -61 0 -41
-7 -49 -28 -28 -18 18 -14 32 5 17 15 -13 16 -11 10 13 -6 22 -1 31 28 57 32
27 55 39 55 27z"/>
<path d="M2040 6021 c0 -94 15 -123 83 -155 68 -32 81 -47 72 -85 -8 -36 -57
-82 -125 -116 -105 -53 -150 -115 -151 -207 -2 -113 39 -181 134 -227 57 -27
141 -38 162 -21 25 21 17 30 -26 30 -45 0 -45 15 1 25 46 10 36 25 -17 25 -90
1 -149 34 -184 102 -52 102 8 198 160 256 98 38 140 68 180 130 56 88 62 194
14 233 -15 13 -16 11 -9 -11 19 -62 17 -75 -5 -35 -31 57 -48 74 -87 85 -27 7
-42 5 -65 -7 -30 -15 -31 -15 -55 13 l-25 29 7 -40 8 -40 -21 19 c-12 11 -21
25 -21 31 0 7 -7 18 -15 25 -13 11 -15 3 -15 -59z m236 -53 l19 -22 -29 18
c-22 14 -30 15 -36 6 -4 -7 -13 -9 -19 -6 -6 4 -9 12 -6 17 11 17 52 9 71 -13z
m-6 -59 c0 -25 -18 -24 -39 2 -12 15 -25 20 -51 17 l-35 -3 43 -23 c52 -28 55
-36 5 -15 -77 31 -83 53 -17 53 32 0 51 -5 61 -17 13 -17 14 -16 10 5 -5 19
-3 21 9 11 8 -6 14 -20 14 -30z m40 -19 c0 -16 -2 -30 -4 -30 -2 0 -6 14 -8
30 -3 17 -1 30 4 30 4 0 8 -13 8 -30z m-40 -76 c0 -13 5 -24 11 -24 5 0 7 -4
4 -10 -3 -5 -13 -10 -21 -10 -12 0 -14 7 -9 30 4 20 2 37 -7 48 -12 15 -11 16
5 3 9 -7 17 -24 17 -37z m27 -6 c-3 -7 -5 -2 -5 12 0 14 2 19 5 13 2 -7 2 -19
0 -25z"/>
<path d="M2805 5945 c-13 -97 15 -177 94 -275 36 -45 35 -11 -3 61 -57 109
-42 192 29 158 35 -17 95 -93 95 -120 0 -17 -6 -20 -32 -17 -29 3 -33 6 -30
31 2 23 -1 27 -22 27 -35 0 -40 -15 -19 -53 25 -41 80 -79 113 -75 34 4 60 58
60 127 0 47 -4 57 -32 85 -32 31 -157 90 -217 102 -29 6 -29 6 -36 -51z"/>
<path d="M6570 5977 c-88 -36 -157 -75 -174 -99 -36 -52 -2 -198 46 -198 33 0
85 35 108 72 28 46 25 58 -11 58 -23 0 -30 -4 -27 -17 4 -25 -10 -43 -33 -43
-29 0 -24 40 10 87 34 47 83 72 106 53 25 -21 18 -89 -15 -150 -39 -72 -38
-92 1 -54 66 63 96 158 84 259 -8 64 -12 65 -95 32z"/>
<path d="M2654 5780 c1 -112 0 -117 -32 -176 -18 -34 -43 -66 -55 -71 -133
-62 -178 -88 -212 -122 -49 -51 -36 -52 37 -2 99 67 168 64 168 -7 0 -61 17
-71 22 -13 4 39 14 62 45 103 52 70 59 83 73 151 12 58 26 71 50 42 33 -40 40
6 11 70 -10 22 -38 62 -63 90 l-45 49 1 -114z"/>
<path d="M6755 5819 c-63 -86 -89 -183 -35 -134 28 25 50 13 50 -30 0 -48 22
-99 68 -154 25 -31 42 -66 53 -110 13 -50 18 -60 23 -44 4 12 4 33 0 48 -8 32
18 65 52 65 24 0 128 -51 157 -77 23 -21 30 -12 12 14 -21 30 -114 89 -177
113 -59 22 -75 36 -105 90 -34 62 -46 125 -40 205 4 47 3 75 -3 75 -6 0 -30
-27 -55 -61z"/>
<path d="M3166 5758 c10 -13 21 -25 24 -28 3 -3 29 -33 57 -68 58 -70 76 -123
50 -149 -28 -28 -62 -9 -86 47 -26 61 -42 65 -29 8 13 -61 55 -148 85 -180 33
-35 39 -35 38 -2 -1 67 81 47 139 -34 59 -83 73 -95 111 -88 19 4 44 2 55 -4
11 -6 20 -8 20 -5 0 14 -30 61 -49 79 -17 15 -23 16 -36 6 -20 -17 -57 7 -75
49 -23 55 6 77 60 46 14 -8 31 -14 38 -15 21 0 13 20 -12 30 -13 5 -33 22 -45
39 -12 16 -47 41 -77 55 -39 18 -88 57 -164 131 -59 58 -111 105 -115 105 -5
0 0 -10 11 -22z"/>
<path d="M6301 5771 c-7 -5 -57 -52 -111 -105 -63 -62 -117 -105 -150 -120
-28 -13 -68 -42 -88 -63 -20 -22 -44 -42 -52 -45 -8 -3 -12 -8 -9 -12 4 -4 25
1 48 10 22 9 48 14 56 10 24 -9 17 -53 -14 -88 -27 -30 -32 -32 -51 -20 -19
12 -25 11 -42 -5 -40 -36 -62 -106 -23 -73 8 7 27 10 42 7 38 -7 53 3 111 76
74 95 139 113 152 42 l5 -29 29 35 c48 56 113 219 88 219 -4 0 -18 -21 -32
-47 -30 -56 -53 -73 -77 -57 -12 8 -18 23 -17 47 1 38 33 86 113 169 42 44 53
68 22 49z"/>
<path d="M6337 5640 c-5 -58 -15 -90 -49 -158 -56 -111 -56 -112 -21 -79 36
34 45 34 37 2 -11 -44 11 -27 49 39 42 71 67 90 67 51 0 -31 13 -32 40 -3 19
21 50 104 50 135 0 18 -15 16 -31 -3 -23 -28 -59 -36 -85 -19 -13 8 -24 22
-24 29 0 8 -6 28 -13 46 -14 32 -14 31 -20 -40z"/>
<path d="M2833 5633 c9 -63 -3 -118 -26 -110 -6 2 -19 22 -27 45 -9 22 -19 44
-23 48 -17 17 5 -242 23 -277 16 -28 28 -23 32 13 4 42 33 50 50 13 9 -20 9
-39 1 -78 -6 -29 -9 -53 -8 -55 2 -2 18 24 37 57 18 33 36 61 41 61 15 0 29
-56 24 -102 -2 -27 -1 -48 4 -48 16 0 49 69 49 102 0 44 9 52 32 31 22 -20 23
-13 1 49 -10 27 -32 63 -50 80 -31 30 -31 30 -42 9 -24 -44 -50 -5 -72 104
-21 109 -63 161 -46 58z"/>
<path d="M6621 5663 c-6 -16 -18 -60 -26 -99 -22 -97 -65 -142 -77 -80 -5 31
-74 -48 -87 -100 -6 -24 -15 -46 -21 -49 -5 -3 -10 -14 -10 -23 1 -14 4 -13
19 6 11 12 22 22 25 22 3 0 6 -10 6 -22 1 -30 32 -99 53 -117 16 -12 17 -8 17
52 0 67 6 97 20 97 4 0 11 -15 14 -33 3 -18 19 -48 36 -67 l29 -35 1 28 c0 16
-5 38 -11 49 -16 30 5 101 29 96 12 -2 18 -15 20 -41 8 -100 49 10 57 156 6
113 -3 133 -26 57 -12 -39 -31 -51 -45 -29 -8 13 -7 115 2 141 9 29 -13 21
-25 -9z"/>
<path d="M3116 5665 c-28 -77 -64 -94 -114 -55 l-27 22 -3 -30 c-3 -32 26 -99
52 -121 9 -8 16 -12 17 -10 0 2 2 12 4 22 8 45 27 30 87 -73 l33 -55 3 34 3
34 35 -34 c19 -18 34 -30 34 -27 0 4 -16 33 -35 65 -34 57 -70 159 -77 218 -4
26 -5 27 -12 10z"/>
<path d="M3700 5466 c0 -15 74 -86 90 -86 20 0 9 23 -29 61 -40 40 -61 49 -61
25z"/>
<path d="M6745 5416 c-4 -37 -18 -89 -36 -126 -16 -34 -29 -65 -29 -68 0 -4
20 -18 45 -31 43 -23 113 -90 146 -141 9 -14 19 -23 21 -20 7 8 -19 251 -30
285 -25 76 -41 88 -39 30 1 -40 -19 -68 -32 -46 -5 8 -12 51 -16 97 -4 46 -10
84 -15 84 -4 0 -11 -29 -15 -64z"/>
<path d="M2700 5418 c0 -66 -17 -131 -33 -125 -7 2 -14 26 -17 53 l-5 49 -17
-31 c-20 -37 -35 -123 -43 -249 l-6 -90 33 40 c48 60 118 122 150 136 35 14
35 23 -2 97 -16 33 -33 85 -36 116 -8 71 -24 73 -24 4z"/>
<path d="M3650 5444 c0 -18 13 -38 39 -63 80 -73 89 -76 70 -23 -6 17 -22 38
-35 47 -14 9 -30 27 -36 41 -15 32 -38 31 -38 -2z"/>
<path d="M5779 5441 c-6 -17 -15 -31 -20 -31 -6 0 -21 -12 -34 -26 -25 -27
-34 -64 -15 -64 6 0 10 4 10 10 0 5 11 12 25 16 13 3 27 15 30 25 4 10 15 24
26 30 14 7 19 19 17 36 -4 38 -27 40 -39 4z"/>
<path d="M2445 5391 c-50 -22 -96 -68 -119 -116 -21 -44 -15 -53 18 -31 32 20
60 20 80 0 20 -20 20 -29 0 -49 -21 -20 -12 -29 20 -21 14 3 28 16 32 28 5 17
15 209 10 208 -1 0 -19 -9 -41 -19z"/>
<path d="M3600 5382 c0 -36 37 -85 57 -77 9 3 22 0 29 -6 19 -16 19 13 0 49
-12 24 -28 36 -78 60 -5 2 -8 -10 -8 -26z"/>
<path d="M5827 5392 c-15 -10 -36 -35 -47 -58 -23 -46 -26 -64 -8 -46 7 7 22
12 34 12 29 0 64 45 64 81 0 33 -4 34 -43 11z"/>
<path d="M6994 5298 c4 -80 10 -106 23 -115 29 -22 47 -11 22 14 -15 15 -2 50
21 63 14 8 30 6 56 -5 l36 -15 -7 27 c-9 36 -39 73 -87 106 -69 46 -72 42 -64
-75z"/>
<path d="M2520 5254 c0 -34 -29 -122 -46 -139 -17 -16 -61 -20 -83 -6 -8 5
-17 26 -21 47 l-7 39 -15 -35 c-9 -19 -18 -77 -22 -128 -4 -71 -12 -106 -31
-143 -23 -47 -23 -49 -5 -49 48 0 11 -55 -91 -136 -70 -56 -111 -95 -106 -101
6 -6 323 210 360 246 21 20 51 59 65 86 25 47 27 58 26 175 0 75 -5 133 -12
145 -11 20 -11 20 -12 -1z m-48 -276 c-17 -29 -43 -65 -58 -78 l-27 -25 6 25
c4 14 7 42 7 63 0 32 3 37 24 37 13 0 34 9 47 19 13 11 26 18 28 16 2 -2 -11
-28 -27 -57z"/>
<path d="M7191 5198 c2 -34 -1 -104 -5 -154 -8 -80 -6 -95 12 -137 11 -25 41
-68 66 -95 50 -53 54 -62 31 -62 -25 0 -17 -13 26 -45 22 -16 63 -54 90 -82
28 -29 52 -53 53 -53 2 0 6 10 9 22 l6 22 27 -24 c15 -14 39 -45 55 -70 33
-52 37 -37 13 45 -20 71 -45 100 -113 134 -71 37 -146 103 -171 151 -25 49
-36 100 -50 230 -11 109 -25 165 -41 176 -6 4 -9 -18 -8 -58z"/>
<path d="M2251 5203 c-5 -21 -17 -94 -26 -162 -9 -70 -25 -145 -36 -172 -26
-58 -97 -128 -170 -164 -87 -44 -93 -53 -149 -227 -49 -153 -59 -217 -34 -225
15 -5 23 24 33 117 9 82 35 146 82 203 32 39 49 40 49 4 1 -19 5 -17 38 19 20
22 70 69 110 104 40 34 70 65 68 68 -3 3 -12 -1 -21 -8 -34 -29 -25 2 15 47
58 66 80 113 80 171 0 98 -13 262 -21 262 -5 0 -13 -17 -18 -37z"/>
<path d="M6937 5233 c-2 -5 -8 -48 -11 -98 -6 -76 -4 -101 15 -160 19 -65 28
-77 108 -155 64 -62 114 -100 187 -140 54 -30 116 -70 136 -88 50 -45 81 -111
76 -163 -3 -35 -1 -40 14 -35 10 2 25 -3 34 -11 11 -12 18 -13 27 -4 6 6 19
11 29 11 23 0 23 24 -1 76 -23 52 -41 64 -38 28 3 -43 -20 -39 -49 8 -47 74
-96 129 -169 187 -38 30 -82 69 -97 86 -33 36 -36 65 -9 65 18 0 17 4 -10 58
-23 44 -31 78 -38 152 -5 52 -12 103 -16 113 -11 27 -25 20 -25 -13 0 -40 -40
-68 -75 -52 -31 14 -65 68 -65 104 0 26 -14 46 -23 31z m67 -218 c11 -8 30
-15 42 -15 19 0 22 -7 27 -52 2 -29 4 -54 2 -56 -5 -6 -46 43 -76 91 -30 48
-28 57 5 32z"/>
<path d="M3024 5199 c13 -59 18 -166 8 -173 -7 -4 -14 8 -18 31 -4 21 -12 44
-18 52 -9 11 -12 9 -16 -15 -4 -20 -12 -30 -27 -32 -28 -4 -53 42 -53 99 l0
41 -29 -31 c-35 -37 -72 -52 -110 -45 -18 4 -38 0 -55 -11 -33 -22 -33 -35 -1
-35 92 0 195 -145 182 -257 -3 -26 -13 -54 -26 -67 -42 -45 -22 -85 68 -131
28 -14 66 -39 86 -57 32 -28 48 -33 133 -44 53 -7 99 -11 100 -9 12 12 -15 47
-48 62 -47 21 -51 33 -11 33 21 0 37 -9 55 -32 22 -29 32 -33 71 -33 60 0 59
18 -3 76 -64 61 -65 61 -106 44 -55 -23 -97 -19 -144 15 -22 17 -44 40 -47 50
-10 32 14 100 67 193 49 86 50 91 44 145 -6 52 -11 62 -57 107 -45 44 -51 47
-45 24z m-54 -308 c0 -16 -7 -61 -15 -99 -7 -38 -11 -79 -8 -91 5 -18 2 -22
-12 -20 -35 7 -40 33 -16 88 12 29 25 74 28 102 6 53 23 68 23 20z"/>
<path d="M6393 5170 c-31 -36 -44 -62 -49 -96 -6 -44 -3 -55 50 -158 31 -61
60 -128 63 -149 5 -33 2 -41 -31 -72 -47 -44 -91 -52 -155 -29 l-50 18 -48
-44 c-56 -51 -63 -60 -63 -80 0 -11 12 -15 46 -15 41 0 50 4 77 37 29 34 35
36 67 29 l35 -7 -51 -27 c-72 -37 -78 -57 -15 -57 78 0 153 18 181 44 14 12
55 40 92 60 42 23 74 48 83 65 13 26 12 31 -10 61 -14 19 -27 48 -31 66 -13
71 52 205 116 239 14 8 42 17 64 20 l38 6 -23 25 c-19 20 -32 24 -82 24 -53 0
-62 3 -87 30 -15 17 -31 30 -34 30 -3 0 -6 -19 -6 -43 0 -33 -6 -49 -25 -67
-20 -19 -27 -21 -40 -10 -8 7 -15 23 -15 37 0 37 -19 17 -32 -35 -9 -36 -13
-42 -19 -26 -4 10 -6 28 -4 39 11 60 15 135 8 134 -4 0 -27 -22 -50 -49z m160
-402 c24 -48 25 -54 10 -70 -24 -26 -47 -23 -39 5 3 12 -2 61 -11 108 -10 52
-13 94 -8 105 6 14 10 5 15 -38 4 -32 19 -81 33 -110z"/>
<path d="M4363 4588 c-6 -7 -20 -49 -32 -93 -12 -44 -24 -88 -27 -97 -4 -13 0
-18 16 -18 13 0 24 8 27 20 4 15 14 20 38 20 24 0 34 -5 38 -20 3 -12 14 -20
26 -20 26 0 26 -6 -7 115 -23 83 -31 101 -48 103 -11 2 -25 -3 -31 -10z m37
-77 c0 -11 3 -26 6 -35 5 -12 0 -16 -20 -16 -24 0 -26 3 -20 28 9 34 13 42 25
42 5 0 9 -9 9 -19z"/>
<path d="M4500 4490 l0 -111 63 3 c68 3 80 20 20 28 l-38 5 -5 90 c-4 75 -8
90 -22 93 -16 3 -18 -7 -18 -108z"/>
<path d="M4657 4593 c-4 -3 -7 -53 -7 -110 l0 -103 25 0 c14 0 26 5 26 10 1 6
3 15 4 20 1 6 3 21 4 35 1 21 6 25 30 25 55 0 81 70 41 110 -14 14 -33 20 -68
20 -27 0 -52 -3 -55 -7z m91 -66 c-2 -14 -11 -23 -25 -25 -19 -3 -23 1 -23 26
0 36 8 44 32 31 12 -6 18 -19 16 -32z"/>
<path d="M4830 4491 c0 -104 1 -111 20 -111 17 0 20 7 20 50 0 46 2 50 24 50
21 0 25 -6 31 -50 6 -40 11 -50 26 -50 18 0 19 7 17 107 -3 92 -6 108 -20 111
-13 3 -17 -6 -20 -40 -3 -38 -6 -43 -30 -46 -25 -3 -27 0 -30 40 -2 31 -8 44
-20 46 -16 3 -18 -7 -18 -107z"/>
<path d="M5057 4583 c-3 -10 -15 -52 -27 -93 -11 -41 -23 -83 -26 -92 -8 -27
31 -23 49 5 19 30 57 29 68 -1 5 -13 17 -22 30 -22 17 0 20 5 16 23 -8 41 -48
181 -53 189 -10 15 -52 8 -57 -9z m48 -90 c4 -19 2 -34 -5 -38 -21 -13 -33 12
-26 51 8 41 20 36 31 -13z"/>
<path d="M1931 4487 c-29 -59 -27 -89 6 -104 22 -11 28 -10 38 4 7 9 19 14 27
10 13 -4 17 5 21 46 2 29 8 60 12 70 13 30 -9 18 -33 -18 -29 -46 -46 -46 -39
0 8 48 -7 44 -32 -8z"/>
<path d="M7600 4455 c-9 -52 19 -208 35 -203 18 6 10 121 -13 168 -11 25 -21
41 -22 35z"/>
<path d="M1905 4346 c-13 -10 -19 -27 -19 -62 l-1 -49 35 1 35 0 -4 44 c-2 25
-9 53 -15 62 -11 15 -15 16 -31 4z"/>
<path d="M1980 4345 c-11 -14 -11 -23 2 -58 12 -33 20 -43 41 -45 23 -3 27 1
27 21 0 14 -6 30 -14 37 -8 6 -16 21 -18 32 -4 27 -21 33 -38 13z"/>
<path d="M7457 4353 c-4 -3 -7 -17 -7 -30 0 -12 -4 -23 -10 -23 -5 0 -10 -13
-10 -30 0 -23 5 -30 19 -30 23 0 34 14 50 60 10 30 9 37 -6 47 -19 15 -27 16
-36 6z"/>
<path d="M7392 4317 c-7 -18 -12 -42 -12 -52 0 -19 1 -19 19 0 25 26 38 85 19
85 -8 0 -19 -15 -26 -33z"/>
<path d="M7542 4334 c-5 -11 -13 -34 -17 -51 -6 -30 -4 -34 21 -44 24 -8 31
-7 42 8 16 22 8 61 -18 87 -18 18 -18 18 -28 0z"/>
<path d="M2050 4318 c0 -26 34 -75 43 -62 7 12 -22 84 -34 84 -5 0 -9 -10 -9
-22z"/>
<path d="M2691 4073 c-73 -38 -98 -116 -63 -195 35 -80 138 -102 193 -41 l24
27 -32 -22 c-82 -57 -175 15 -157 122 14 82 36 106 97 106 33 0 67 -26 80 -60
3 -8 6 4 6 26 1 37 -2 42 -21 42 -13 0 -39 3 -58 6 -25 5 -45 2 -69 -11z"/>
<path d="M5811 4072 c-54 -27 -75 -64 -75 -127 0 -65 22 -101 78 -129 49 -24
93 -15 136 29 28 28 34 44 38 89 5 66 -20 115 -72 140 -43 20 -63 20 -105 -2z
m113 -35 c17 -22 21 -43 21 -97 0 -59 -3 -72 -24 -94 -24 -26 -61 -33 -96 -20
-46 18 -62 151 -25 212 19 30 24 33 62 30 31 -2 46 -10 62 -31z"/>
<path d="M6205 4072 c-51 -24 -75 -66 -75 -129 0 -61 28 -109 77 -129 49 -21
93 -11 129 28 l29 32 -33 -27 c-43 -35 -90 -36 -125 -3 -32 30 -41 62 -35 127
7 66 37 99 90 99 37 0 56 -12 86 -56 12 -17 13 -17 7 -1 -3 10 -5 28 -5 40 0
16 -6 22 -22 23 -13 1 -36 4 -53 8 -20 4 -43 0 -70 -12z"/>
<path d="M2893 4073 c15 -4 17 -19 17 -123 0 -103 -2 -120 -17 -129 -13 -8 9
-10 82 -11 l101 0 11 30 c14 37 11 37 -22 4 -20 -20 -33 -25 -68 -22 l-42 3
-3 58 -3 57 42 0 c28 0 46 -6 55 -17 11 -16 12 -13 11 19 -1 21 -5 38 -9 38
-5 0 -8 -4 -8 -10 0 -5 -20 -10 -45 -10 l-45 0 0 55 0 55 49 0 c40 0 53 -4 65
-22 l16 -22 0 27 0 27 -102 -1 c-57 -1 -95 -3 -85 -6z"/>
<path d="M3130 4067 c24 -12 25 -17 28 -122 2 -95 0 -111 -15 -122 -15 -11
-12 -13 22 -13 34 0 37 2 22 13 -15 10 -17 27 -15 107 l3 94 85 -107 c47 -59
87 -107 90 -107 3 0 4 47 4 104 -2 125 3 154 25 159 9 3 -4 5 -28 6 -39 1 -42
-1 -27 -12 14 -10 16 -26 14 -101 l-3 -88 -79 101 c-74 95 -81 101 -115 101
-35 0 -36 0 -11 -13z"/>
<path d="M3416 4064 c-3 -9 -6 -23 -5 -32 0 -13 3 -11 11 6 6 12 19 23 30 24
54 5 51 12 49 -117 -2 -80 -6 -122 -14 -127 -7 -4 10 -8 37 -8 43 0 47 2 33
13 -15 11 -17 28 -15 127 l3 115 30 -2 c16 -1 36 -10 42 -20 12 -15 13 -14 13
10 l0 27 -104 0 c-85 0 -105 -3 -110 -16z"/>
<path d="M3673 4073 c15 -4 17 -19 17 -128 0 -109 -2 -124 -17 -128 -10 -3 28
-5 84 -6 l101 -1 11 31 10 30 -31 -26 c-24 -21 -39 -25 -72 -23 l-41 3 -3 58
-3 57 45 0 c32 0 48 -5 55 -17 8 -14 10 -8 10 27 0 40 -1 43 -13 28 -9 -12
-27 -18 -55 -18 l-41 0 0 55 0 55 45 0 c32 0 51 -6 65 -20 l20 -20 0 25 0 25
-102 -1 c-57 -1 -95 -3 -85 -6z"/>
<path d="M3910 4067 c24 -12 25 -17 28 -122 2 -95 0 -111 -15 -122 -14 -11
-11 -13 28 -12 24 0 37 3 29 6 -25 10 -29 24 -29 116 0 105 -5 106 100 -27 41
-52 77 -95 82 -96 4 0 7 58 7 129 0 94 3 131 13 134 6 3 -6 5 -28 5 -22 0 -32
-2 -22 -5 15 -4 17 -17 17 -101 -1 -78 -3 -94 -13 -81 -141 180 -149 189 -186
189 -36 0 -36 0 -11 -13z"/>
<path d="M4208 4064 c20 -14 22 -23 22 -123 0 -70 -4 -111 -12 -119 -9 -9 -3
-12 28 -11 21 1 31 3 22 6 -14 4 -18 16 -19 61 -1 31 -2 74 -3 94 0 21 2 38 6
38 3 0 42 -45 85 -100 43 -54 81 -99 86 -100 4 0 7 58 7 129 0 94 3 131 13
134 6 3 -4 6 -23 6 -22 0 -30 -2 -22 -7 9 -6 12 -34 10 -100 l-3 -91 -78 100
c-70 88 -81 99 -110 99 -31 0 -31 0 -9 -16z"/>
<path d="M4503 4073 c15 -4 17 -19 17 -128 0 -109 -2 -124 -17 -128 -10 -3 5
-5 32 -5 28 0 44 2 38 5 -10 3 -13 39 -13 128 0 89 3 125 13 128 6 3 -10 5
-38 5 -27 0 -42 -2 -32 -5z"/>
<path d="M4696 3963 c-27 -65 -56 -126 -64 -135 -14 -17 -12 -18 24 -17 21 1
31 3 22 6 -21 5 -22 10 -7 52 11 31 12 32 67 29 54 -3 57 -4 66 -36 7 -26 6
-36 -5 -43 -9 -6 2 -9 34 -9 l48 0 -18 24 c-11 13 -39 74 -63 135 -23 61 -46
111 -50 111 -3 0 -28 -53 -54 -117z m64 11 c11 -25 20 -50 20 -55 0 -5 -18 -9
-40 -9 -25 0 -40 5 -40 12 0 13 33 98 38 98 1 0 12 -21 22 -46z"/>
<path d="M4928 4073 c9 -3 12 -39 12 -128 0 -89 -3 -125 -12 -128 -7 -3 30 -6
84 -6 l96 -1 11 31 c15 44 14 46 -10 15 -18 -22 -28 -26 -75 -26 l-54 0 0 115
c0 111 1 116 23 125 17 7 10 9 -33 9 -30 -1 -49 -3 -42 -6z"/>
<path d="M5257 4072 c14 -9 16 -32 14 -159 -1 -78 -4 -92 -18 -96 -10 -3 28
-5 85 -6 101 -1 103 -1 112 25 15 37 12 40 -10 16 -17 -17 -32 -22 -75 -22
l-55 0 0 115 c0 98 2 115 18 124 13 8 6 10 -33 11 -28 0 -45 -4 -38 -8z"/>
<path d="M5503 4073 c15 -4 17 -19 17 -123 0 -103 -2 -120 -17 -129 -13 -8 10
-10 85 -11 56 0 102 3 102 8 0 4 3 18 7 30 6 24 6 24 -21 -3 -22 -21 -34 -26
-69 -23 l-42 3 -3 60 -3 61 43 -4 c23 -3 47 -11 53 -19 9 -11 11 -5 11 26 -1
33 -3 38 -12 26 -7 -9 -27 -15 -53 -15 l-41 0 0 55 0 55 49 0 c40 0 53 -4 65
-22 l16 -22 0 27 0 27 -102 -1 c-57 -1 -95 -3 -85 -6z"/>
<path d="M6410 4070 c11 -7 16 -36 18 -118 3 -91 1 -111 -13 -125 -15 -16 -10
-17 80 -17 93 0 96 1 105 26 15 37 12 40 -11 15 -17 -18 -29 -21 -72 -19 l-52
3 -3 110 c-2 95 0 111 15 122 14 11 10 13 -33 13 -34 0 -45 -3 -34 -10z"/>
<path d="M6647 4072 c8 -5 14 -46 17 -111 4 -89 8 -106 27 -127 30 -32 82 -41
125 -20 45 21 54 48 54 156 0 74 3 91 18 99 13 8 9 10 -23 10 -22 0 -34 -3
-27 -6 19 -8 17 -207 -4 -227 -37 -37 -103 -32 -122 9 -7 14 -12 66 -12 115 0
74 3 91 18 99 13 8 6 10 -33 11 -27 0 -45 -4 -38 -8z"/>
<path d="M6943 4069 c15 -9 17 -26 17 -124 0 -98 -2 -115 -17 -124 -30 -18
143 -14 176 4 49 25 54 63 14 102 -16 17 -22 28 -14 31 17 6 31 46 24 71 -9
35 -54 51 -140 51 -58 -1 -73 -3 -60 -11z m123 -5 c33 -9 48 -51 29 -80 -12
-19 -24 -24 -55 -24 l-40 0 0 55 c0 50 2 55 23 55 12 0 32 -3 43 -6z m37 -156
c19 -25 19 -28 4 -52 -17 -25 -75 -44 -96 -31 -6 3 -11 31 -11 61 l0 55 42 -3
c31 -2 46 -10 61 -30z"/>
<path d="M4790 3659 c-39 -16 -59 -39 -66 -75 -8 -46 1 -76 32 -107 38 -38 91
-37 133 2 79 74 -1 220 -99 180z m61 -9 c16 0 39 -58 39 -98 0 -101 -104 -127
-130 -33 -5 21 -7 53 -4 70 7 35 50 75 72 66 7 -3 18 -5 23 -5z"/>
<path d="M4968 3564 c3 -72 0 -99 -10 -105 -8 -6 1 -9 27 -9 30 0 36 3 27 12
-7 7 -12 29 -12 50 0 43 20 59 51 39 16 -9 19 -8 19 7 0 15 -6 17 -35 14 -35
-4 -35 -4 -35 37 l0 41 40 0 c27 0 42 -6 49 -17 9 -16 10 -16 11 5 0 21 -4 22
-67 22 l-68 0 3 -96z"/>
<path d="M3283 3276 c-73 -33 -99 -153 -47 -215 30 -36 82 -53 126 -41 34 10
68 37 68 54 0 6 -6 4 -13 -5 -36 -47 -97 -51 -138 -10 -25 26 -29 37 -29 86 0
31 7 69 15 84 29 58 113 59 148 3 l17 -27 -2 36 c-2 30 -6 37 -22 37 -12 0
-37 3 -56 6 -22 4 -47 1 -67 -8z"/>
<path d="M4163 3274 c-119 -59 -75 -261 56 -258 130 4 168 198 52 259 -38 19
-67 19 -108 -1z m118 -38 c23 -38 25 -125 4 -166 -26 -50 -94 -54 -128 -7 -25
32 -29 115 -8 164 24 58 99 63 132 9z"/>
<path d="M5103 3271 c-67 -42 -88 -114 -53 -185 17 -36 30 -48 63 -61 36 -14
48 -14 81 -3 21 7 46 24 55 38 16 25 16 25 -17 -2 -81 -68 -169 2 -154 123 6
55 40 91 86 92 33 1 44 -5 69 -33 16 -19 27 -27 23 -17 -3 10 -6 26 -6 36 0 9
-8 17 -17 18 -10 1 -36 4 -58 8 -31 5 -48 1 -72 -14z"/>
<path d="M5363 3274 c-43 -21 -78 -92 -70 -141 16 -97 115 -148 191 -98 80 53
73 195 -13 240 -38 19 -67 19 -108 -1z m88 -4 c22 0 49 -66 49 -118 0 -88 -35
-130 -100 -120 -55 8 -84 119 -51 195 13 32 53 56 79 47 8 -2 18 -4 23 -4z"/>
<path d="M6380 3282 c-28 -13 -56 -37 -73 -62 -21 -30 -22 -101 -2 -140 27
-52 111 -80 175 -57 34 12 35 14 40 75 l5 62 -35 0 c-22 0 -30 -3 -22 -9 9 -5
12 -25 10 -62 l-3 -54 -41 -3 c-71 -5 -115 64 -101 156 9 50 45 84 92 85 32 1
43 -5 68 -33 16 -19 27 -27 23 -17 -3 10 -6 26 -6 36 0 9 -8 17 -17 18 -10 1
-36 4 -58 7 -22 3 -47 2 -55 -2z"/>
<path d="M2840 3261 c5 -11 10 -65 10 -120 0 -85 -3 -102 -17 -110 -14 -8 -7
-10 32 -10 39 0 46 2 33 10 -13 7 -18 23 -18 59 0 68 19 65 73 -10 38 -54 45
-59 77 -59 29 0 31 2 14 9 -11 4 -37 31 -57 59 l-36 50 29 30 c61 60 21 111
-87 111 -60 0 -63 -1 -53 -19z m110 -11 c11 -11 20 -26 20 -34 0 -23 -33 -55
-60 -58 -24 -3 -25 0 -28 55 -3 55 -2 57 23 57 14 0 34 -9 45 -20z"/>
<path d="M3098 3268 c8 -8 12 -49 12 -120 0 -91 -3 -108 -17 -117 -14 -8 -7
-10 32 -10 39 0 46 2 33 10 -15 9 -18 26 -18 117 0 71 4 112 12 120 9 9 3 12
-27 12 -30 0 -36 -3 -27 -12z"/>
<path d="M3478 3272 c14 -10 15 -21 13 -149 -1 -78 -4 -92 -18 -96 -10 -3 7
-5 37 -6 42 0 51 2 38 10 -14 8 -18 23 -18 64 l0 55 60 0 60 0 0 -55 c0 -41
-4 -56 -17 -64 -14 -8 -7 -10 32 -10 28 0 44 3 38 6 -10 3 -13 38 -13 123 0
85 3 120 13 123 6 3 -8 5 -33 5 -25 0 -39 -2 -32 -5 7 -3 12 -25 12 -59 l0
-54 -60 0 -60 0 0 54 c0 34 5 56 13 59 6 3 -8 6 -33 6 -27 0 -40 -3 -32 -7z"/>
<path d="M3760 3270 c20 -12 18 -229 -2 -242 -8 -5 2 -8 26 -8 35 0 38 2 23
13 -15 10 -17 27 -15 107 l3 95 44 -100 c25 -55 47 -103 51 -108 3 -4 26 37
50 90 24 54 47 102 52 108 4 5 8 -34 8 -88 0 -81 -3 -98 -17 -106 -14 -8 -7
-10 32 -10 39 0 46 2 33 10 -15 9 -18 26 -18 117 0 71 4 112 12 120 9 9 5 12
-18 12 -28 0 -32 -5 -74 -102 l-44 -102 -48 102 c-47 99 -49 102 -81 102 -24
0 -28 -3 -17 -10z"/>
<path d="M4384 3267 c16 -12 18 -28 17 -122 -1 -73 -6 -112 -14 -117 -7 -4 5
-8 27 -8 35 0 38 2 22 13 -14 10 -16 26 -14 102 l3 89 80 -101 c44 -56 83
-102 88 -103 4 0 7 56 7 124 0 90 3 126 13 129 6 3 -4 6 -23 6 -22 0 -30 -2
-22 -7 9 -6 12 -33 10 -95 l-3 -87 -75 95 c-64 82 -79 95 -104 95 -27 0 -28
-1 -12 -13z"/>
<path d="M4678 3156 c3 -113 1 -125 -15 -129 -10 -3 17 -5 60 -6 93 -1 140 17
164 63 23 44 21 111 -4 144 -30 40 -60 52 -138 52 l-70 0 3 -124z m131 100
c34 -18 51 -54 51 -111 0 -70 -63 -128 -121 -110 -17 6 -19 17 -19 114 0 59 3
111 7 114 11 12 53 8 82 -7z"/>
<path d="M5598 3158 c2 -92 0 -123 -10 -129 -7 -5 29 -9 85 -9 53 0 97 3 97 8
0 4 3 18 6 32 l6 25 -16 -22 c-14 -19 -27 -23 -72 -23 l-54 0 0 110 c0 93 3
110 18 119 14 8 9 10 -23 11 l-40 0 3 -122z"/>
<path d="M5828 3273 c9 -3 12 -38 12 -123 0 -104 -2 -119 -17 -123 -10 -3 26
-5 79 -6 87 -1 98 1 108 18 16 31 12 48 -6 23 -12 -18 -25 -22 -70 -22 l-54 0
0 114 c0 82 4 116 13 119 6 3 -8 5 -33 5 -25 0 -39 -2 -32 -5z"/>
<path d="M6068 3273 c8 -3 12 -37 12 -118 0 -98 -2 -115 -17 -124 -13 -8 8
-10 80 -11 96 0 98 0 107 26 15 37 12 42 -9 15 -12 -16 -31 -25 -63 -28 -25
-3 -48 -1 -51 3 -3 5 -7 32 -8 59 l-3 50 39 3 c29 3 43 -1 52 -14 11 -16 13
-12 12 27 -1 24 -3 37 -6 28 -4 -17 -32 -29 -70 -29 -26 0 -29 8 -25 65 l4 45
49 0 c35 0 51 -5 58 -17 9 -16 10 -16 11 5 0 21 -3 22 -92 21 -51 0 -87 -3
-80 -6z"/>
<path d="M6588 3273 c8 -3 12 -37 12 -118 0 -98 -2 -115 -17 -124 -13 -8 8
-10 78 -11 93 0 96 1 107 25 17 37 14 44 -7 16 -14 -18 -31 -25 -69 -29 -48
-4 -51 -3 -57 20 -4 14 -5 40 -3 59 3 32 6 34 43 37 29 3 43 -1 52 -14 11 -16
13 -13 13 24 l0 42 -21 -21 c-14 -14 -30 -19 -52 -17 -31 3 -32 4 -32 53 l0
50 53 3 c47 3 53 1 61 -20 10 -22 10 -22 10 5 l1 27 -92 -1 c-51 0 -87 -3 -80
-6z"/>
<path d="M3740 2770 c0 -76 1 -80 22 -80 17 0 19 3 10 12 -7 7 -12 38 -12 70
0 44 4 59 18 67 14 9 13 10 -10 11 l-28 0 0 -80z"/>
<path d="M3915 2770 c0 -59 3 -80 13 -80 10 0 12 19 10 77 -4 104 -23 106 -23
3z"/>
<path d="M3990 2835 c-19 -23 -8 -48 33 -74 39 -25 48 -55 21 -65 -18 -7 -50
8 -57 26 -3 7 -6 3 -6 -9 -1 -17 5 -23 22 -25 39 -2 61 2 69 15 16 26 7 48
-32 73 -24 16 -40 34 -38 43 4 22 32 25 52 6 13 -14 16 -14 16 -2 0 8 -10 17
-22 21 -34 9 -44 7 -58 -9z"/>
<path d="M4105 2840 c-3 -5 1 -10 9 -10 8 0 18 5 21 10 3 6 -1 10 -9 10 -8 0
-18 -4 -21 -10z"/>
<path d="M4155 2770 c0 -57 4 -80 13 -80 8 0 12 23 12 80 0 57 -4 80 -12 80
-9 0 -13 -23 -13 -80z"/>
<path d="M4200 2841 c0 -5 7 -11 15 -15 9 -3 15 0 15 9 0 8 -7 15 -15 15 -8 0
-15 -4 -15 -9z"/>
<path d="M4265 2770 c0 -57 4 -80 13 -80 8 0 12 22 12 76 0 65 2 75 16 72 9
-2 22 -11 28 -21 9 -15 7 -22 -10 -35 l-22 -17 27 -37 c14 -21 32 -38 39 -38
8 0 2 14 -14 36 -25 33 -26 37 -11 46 9 5 17 20 17 34 0 26 -30 44 -73 44 -21
0 -22 -4 -22 -80z"/>
<path d="M4425 2770 c0 -52 4 -80 11 -80 7 0 12 29 13 80 1 60 -2 80 -11 80
-10 0 -13 -21 -13 -80z"/>
<path d="M4510 2825 c-46 -49 -25 -123 40 -139 23 -6 23 -6 5 5 -32 18 -45 40
-45 74 0 38 23 72 53 78 20 4 20 4 -4 6 -16 0 -35 -9 -49 -24z"/>
<path d="M4640 2833 c0 -13 3 -14 12 -5 29 29 38 13 38 -63 0 -53 4 -75 13
-75 9 0 11 19 9 70 -3 57 -1 71 12 76 9 3 24 0 33 -7 14 -12 16 -12 11 1 -3
11 -22 16 -66 18 -53 2 -62 0 -62 -15z"/>
<path d="M5562 2837 c-8 -10 -5 -13 16 -12 36 0 42 -37 12 -79 l-22 -31 31 33
c35 37 40 76 12 92 -26 13 -36 13 -49 -3z"/>
<path d="M3815 2828 c28 -16 35 -28 35 -64 0 -30 -19 -56 -50 -67 -10 -4 -8
-6 6 -6 12 -1 32 7 44 17 44 36 19 132 -34 132 -21 -1 -21 -1 -1 -12z"/>
<path d="M4590 2836 c0 -2 7 -9 15 -16 12 -10 15 -10 15 4 0 9 -7 16 -15 16
-8 0 -15 -2 -15 -4z"/>
<path d="M5420 2793 c-11 -26 -26 -60 -34 -75 -14 -25 -13 -28 1 -28 9 0 13 3
10 6 -3 4 -2 15 4 26 15 28 73 21 77 -9 2 -14 10 -23 21 -23 16 0 14 7 -10 58
-16 31 -29 62 -29 69 0 32 -22 19 -40 -24z m30 -2 c0 -5 3 -16 6 -25 5 -12 0
-16 -20 -16 -24 0 -25 2 -14 25 11 24 28 34 28 16z"/>
<path d="M4949 2819 c-11 -7 -11 -9 4 -9 10 0 20 -7 23 -15 4 -8 10 -13 15
-10 11 7 1 32 -15 38 -7 3 -19 1 -27 -4z"/>
<path d="M5042 2808 c-17 -17 -15 -93 2 -107 13 -11 13 -8 5 21 -5 21 -5 46 0
66 11 36 10 37 -7 20z"/>
<path d="M5085 2755 c0 -55 2 -63 13 -48 6 9 12 31 12 48 0 17 -6 39 -12 48
-11 15 -13 7 -13 -48z"/>
<path d="M5152 2797 c-28 -30 -29 -107 -1 -107 5 0 4 12 -2 26 -7 21 -5 35 9
65 11 22 19 39 17 39 -1 0 -11 -10 -23 -23z"/>
<path d="M4967 2763 c-4 -3 1 -12 11 -19 15 -11 15 -15 3 -36 -13 -21 -13 -22
2 -9 10 7 17 21 17 31 0 20 -23 43 -33 33z"/>
<path d="M5180 2755 c7 -8 10 -26 8 -40 -4 -20 -3 -23 8 -14 17 14 18 41 2 57
-17 17 -33 15 -18 -3z"/>
<path d="M5543 2698 c-2 -5 16 -8 41 -8 25 0 47 3 49 8 3 4 -15 7 -40 7 -25 0
-47 -3 -50 -7z"/>
<path d="M4207 2525 c-14 -14 -13 -55 2 -55 4 0 22 -13 41 -30 l35 -30 -24
-20 c-27 -24 -15 -27 17 -4 34 23 27 49 -20 81 -24 16 -43 35 -43 43 0 22 34
24 56 4 18 -16 19 -16 19 2 0 15 -8 20 -34 22 -20 2 -40 -4 -49 -13z"/>
<path d="M4335 2460 c0 -64 3 -80 15 -80 12 0 14 14 12 76 -4 74 -3 76 20 72
32 -4 39 -53 8 -63 -20 -6 -19 -8 11 -46 17 -21 38 -39 47 -39 10 0 13 3 7 8
-6 4 -21 20 -33 36 -22 29 -22 29 -2 43 41 29 11 73 -48 73 l-37 0 0 -80z"/>
<path d="M4495 2460 c0 -64 3 -80 15 -80 12 0 15 16 15 80 0 64 -3 80 -15 80
-12 0 -15 -16 -15 -80z"/>
<path d="M4635 2460 l0 -80 53 0 c28 0 52 3 52 8 0 4 -18 6 -41 4 l-41 -4 4
76 c2 62 0 76 -12 76 -12 0 -15 -16 -15 -80z"/>
<path d="M4830 2530 c-1 -8 -16 -45 -34 -82 -21 -44 -28 -68 -20 -68 7 0 14
10 16 23 2 18 10 23 41 25 36 3 44 -5 38 -40 0 -5 9 -8 20 -8 15 0 19 4 12 13
-5 6 -19 39 -32 72 -26 65 -41 88 -41 65z m8 -88 c-28 -5 -33 4 -18 35 l13 28
12 -30 c12 -27 12 -30 -7 -33z"/>
<path d="M4944 2524 c3 -9 6 -45 6 -80 0 -35 3 -64 8 -64 4 0 6 28 4 62 l-3
63 33 -40 c18 -21 43 -51 55 -65 l21 -25 4 83 c1 45 0 82 -4 82 -5 0 -8 -25
-8 -55 0 -30 -3 -55 -7 -54 -5 0 -27 25 -51 55 -41 52 -71 71 -58 38z"/>
<path d="M5120 2460 c0 -59 3 -80 13 -80 9 0 12 11 9 35 -2 19 0 35 5 35 14 0
64 -56 56 -63 -3 -4 7 -7 22 -7 l29 0 -44 46 -45 46 39 34 c34 29 36 34 18 34
-12 0 -22 -6 -22 -13 0 -14 -41 -57 -54 -57 -5 0 -6 16 -3 35 4 26 2 35 -9 35
-11 0 -14 -17 -14 -80z"/>
<path d="M5337 2510 c-48 -110 -55 -130 -48 -130 5 0 12 11 15 25 5 21 12 25
41 25 29 0 36 -4 41 -25 3 -14 12 -25 20 -25 9 0 5 18 -15 68 -15 37 -30 74
-33 82 -4 10 -11 4 -21 -20z m33 -62 c0 -5 -11 -8 -25 -8 -29 0 -29 0 -13 35
l12 26 13 -23 c7 -13 12 -26 13 -30z"/>
<path d="M4200 2395 c0 -8 7 -15 16 -15 14 0 14 3 4 15 -7 8 -14 15 -16 15 -2
0 -4 -7 -4 -15z"/>
<path d="M4929 2109 c-11 -7 -9 -9 10 -9 20 0 23 -4 19 -32 -5 -28 -4 -29 9
-13 7 11 13 25 13 32 0 18 -33 33 -51 22z"/>
<path d="M4355 2093 c-4 -13 4 -26 30 -47 30 -24 34 -31 23 -44 -11 -13 -10
-14 2 -10 29 9 24 47 -10 66 -20 11 -29 23 -26 35 5 22 -10 22 -19 0z"/>
<path d="M4405 2100 c3 -5 8 -10 11 -10 2 0 4 5 4 10 0 6 -5 10 -11 10 -5 0
-7 -4 -4 -10z"/>
<path d="M4460 2050 c0 -33 4 -60 10 -60 6 0 10 27 10 60 0 33 -4 60 -10 60
-6 0 -10 -27 -10 -60z"/>
<path d="M4520 2048 l4 -63 6 50 5 50 35 -49 c22 -30 36 -43 38 -33 2 8 -13
32 -32 53 -20 22 -36 42 -36 47 0 4 -6 7 -12 7 -10 0 -12 -17 -8 -62z"/>
<path d="M4600 2099 c0 -5 5 -7 10 -4 6 3 10 8 10 11 0 2 -4 4 -10 4 -5 0 -10
-5 -10 -11z"/>
<path d="M4650 2091 c-21 -40 -4 -101 28 -101 16 1 16 1 0 11 -21 12 -25 78
-6 97 9 9 9 12 0 12 -6 0 -16 -9 -22 -19z"/>
<path d="M4725 2100 c3 -5 8 -10 11 -10 2 0 4 5 4 10 0 6 -5 10 -11 10 -5 0
-7 -4 -4 -10z"/>
<path d="M4770 2050 c0 -33 4 -60 10 -60 6 0 10 13 10 29 0 16 6 32 13 34 10
4 10 6 0 6 -7 1 -13 12 -13 26 0 14 -4 25 -10 25 -6 0 -10 -27 -10 -60z"/>
<path d="M5010 2091 c-14 -26 -13 -63 3 -84 10 -15 12 -8 12 43 0 33 -1 60 -2
60 -1 0 -7 -9 -13 -19z"/>
<path d="M5055 2055 c0 -59 10 -72 20 -27 5 24 -7 82 -17 82 -2 0 -3 -25 -3
-55z"/>
<path d="M5120 2050 c0 -33 4 -60 10 -60 6 0 10 27 10 60 0 33 -4 60 -10 60
-6 0 -10 -27 -10 -60z"/>
<path d="M5214 2102 c-31 -20 -44 -82 -21 -100 10 -9 12 -4 9 24 -3 21 2 44
12 59 17 27 17 29 0 17z"/>
<path d="M5230 2050 c6 -12 9 -32 6 -44 -5 -20 -4 -20 9 -3 15 21 7 58 -14 65
-10 3 -10 0 -1 -18z"/>
<path d="M4350 2005 c0 -8 7 -15 16 -15 14 0 14 3 4 15 -7 8 -14 15 -16 15 -2
0 -4 -7 -4 -15z"/>
<path d="M4835 2000 c-3 -5 -1 -10 4 -10 6 0 11 5 11 10 0 6 -2 10 -4 10 -3 0
-8 -4 -11 -10z"/>
<path d="M4913 1998 c-2 -5 12 -8 31 -8 20 0 36 3 36 8 0 4 -14 7 -31 7 -17 0
-33 -3 -36 -7z"/>
<path d="M6821 8489 c-11 -18 -11 -23 1 -30 19 -12 23 -11 44 12 16 17 16 22
4 29 -23 15 -34 12 -49 -11z"/>
<path d="M7163 8340 c-62 -38 -81 -113 -38 -155 46 -47 114 -24 149 49 22 48
20 63 -13 97 -35 34 -54 36 -98 9z"/>
<path d="M1812 7945 c12 -25 25 -45 28 -45 4 0 17 11 29 24 l23 25 -41 20
c-58 30 -63 27 -39 -24z"/>
<path d="M7933 7589 c-40 -33 -73 -64 -73 -69 0 -11 68 -70 81 -70 21 0 68 30
93 60 33 40 33 72 -1 110 l-28 30 -72 -61z"/>
<path d="M8183 7383 c-29 -20 -28 -31 6 -71 32 -37 73 -41 79 -9 4 19 -42 97
-56 96 -4 0 -17 -7 -29 -16z"/>
<path d="M8473 6813 c-27 -5 -29 -20 -5 -51 l18 -23 32 40 33 41 -28 -1 c-15
-1 -38 -4 -50 -6z"/>
<path d="M839 6720 c-29 -17 -43 -66 -29 -100 13 -30 78 -70 116 -70 51 0 93
63 74 110 -21 50 -117 86 -161 60z"/>
<path d="M727 6269 c-5 -20 29 -53 45 -43 17 10 7 41 -16 52 -20 9 -25 8 -29
-9z"/>
<path d="M3902 705 c-15 -33 -16 -32 9 -38 15 -4 23 1 30 20 7 20 6 29 -3 35
-20 12 -24 10 -36 -17z"/>
<path d="M5256 703 c-2 -10 -7 -33 -11 -50 -6 -30 -4 -33 17 -33 45 0 52 13
29 59 -24 46 -28 48 -35 24z"/>
<path d="M4262 733 c-42 -17 -55 -123 -21 -167 27 -35 86 -36 116 -3 43 45 38
143 -8 167 -19 10 -65 12 -87 3z"/>
<path d="M9095 3014 c-46 -111 -197 -409 -269 -533 -371 -634 -877 -1166
-1497 -1574 -1139 -750 -2563 -967 -3892 -592 -579 163 -1177 470 -1655 852
-78 62 -151 121 -161 131 -10 9 -49 44 -86 77 -38 33 -95 86 -127 118 -32 31
-58 54 -58 50 0 -9 206 -210 305 -298 63 -56 86 -75 182 -150 21 -16 54 -42
73 -58 48 -38 48 -38 105 -76 28 -19 55 -39 60 -45 13 -14 132 -96 140 -96 3
0 32 -17 63 -38 31 -21 84 -53 117 -71 33 -18 65 -37 70 -41 46 -38 392 -201
580 -274 61 -24 119 -47 130 -51 11 -5 22 -9 25 -10 3 0 57 -18 120 -39 148
-49 180 -58 390 -105 409 -93 609 -115 1040 -115 397 -1 615 20 955 89 187 38
443 109 560 155 11 4 63 23 115 40 52 18 118 44 147 57 28 12 55 23 58 23 21
0 322 149 470 232 66 38 125 68 132 68 6 0 13 4 15 8 2 5 55 41 118 81 103 66
191 129 350 252 203 157 572 519 682 668 16 23 34 41 39 41 5 0 9 5 9 11 0 7
8 19 18 28 10 9 33 37 52 64 18 26 37 47 42 47 4 0 8 6 8 13 0 7 9 23 20 35
11 12 20 25 20 30 0 4 9 18 20 29 11 12 21 27 22 34 2 6 12 21 23 34 37 40 53
63 60 84 3 11 12 27 18 34 7 7 19 26 28 42 28 51 88 149 99 162 39 46 305 614
297 636 -1 5 -16 -21 -32 -59z"/>
</g>
</svg>
